<svg width="115" height="46" viewBox="0 0 115 46" fill="none" xmlns="http://www.w3.org/2000/svg">
<g clip-path="url(#clip0_845_17566)">
<path d="M25.1497 23.0492C24.9759 23.0637 24.9614 23.042 25.0193 22.9261C25.0628 22.8537 25.0773 22.774 25.0483 22.7523C25.0266 22.7233 25.0338 22.6654 25.07 22.6147C25.1062 22.564 25.1352 22.4409 25.1352 22.3395C25.1352 22.2091 25.0845 22.1439 24.9179 22.1005C22.7006 21.4076 19.8696 20.7574 18.0016 19.7685C17.8857 19.7105 17.7626 19.6599 17.7409 19.6671C16.9153 18.9808 12.4586 15.6006 11.9181 14.88C11.8964 14.8582 11.7226 14.7134 11.5343 14.5613L11.1866 14.2789L9.434 14.2571C8.47078 14.2499 7.0513 14.2137 6.29086 14.1919C5.30592 14.1557 4.89311 14.163 4.89311 14.2209C4.89311 14.2644 4.8062 14.4816 4.70481 14.7134C3.06145 18.5137 1.87838 21.4539 0.576723 24.9684C0.497058 25.1857 0.482574 25.5478 0.518785 26.7428C0.71256 32.2654 0.843605 37.7116 1.02574 42.2195C1.05471 42.9365 1.07644 43.6534 1.07644 43.8128C1.0692 43.9721 1.08368 44.3415 1.10541 44.6311L1.14162 45.1526L5.05968 45.1381L8.98498 45.1164L9.00671 44.059C9.02119 43.2624 8.99947 42.9799 8.93429 42.922C8.85462 42.8568 8.26076 42.7626 7.86243 42.7482C7.80449 42.7482 7.54377 42.7192 7.28305 42.683C6.51537 42.5743 6.17499 42.5309 5.95772 42.5309C5.78391 42.5236 5.75494 42.5019 5.79839 42.3716C5.82736 42.2847 5.84908 42.1688 5.84908 42.1108C5.84908 42.0529 5.89254 41.7849 5.94323 41.517C6.68977 37.571 7.54835 32.6199 8.04349 27.916C8.06521 27.7784 8.09418 27.5974 8.10867 27.5177C8.12315 27.438 8.15936 27.1918 8.18833 26.9745C8.27524 26.3227 8.268 26.3372 9.20949 25.2364C9.2964 25.135 10.0061 24.2876 10.7955 23.3534C11.5777 22.4191 12.2585 21.6225 12.3019 21.5935C12.3599 21.5501 12.664 21.6587 13.1131 21.8687C15.6623 23.071 16.0679 23.2592 16.3721 23.3896C16.5314 23.462 16.7776 23.5272 16.9153 23.5345C18.0735 23.6092 19.3209 23.9936 20.4784 23.9473C20.5871 23.94 20.6957 23.969 20.7174 24.0052C20.7464 24.0487 20.6885 24.0776 20.5943 24.0776C19.8577 24.0776 25.4685 23.028 25.1497 23.0492Z" fill="black"/>
<path d="M109.029 38.3418C109.029 37.8052 109.462 37.3717 109.999 37.3717H114.571C114.736 36.4016 114.839 35.9992 114.839 35.4832C114.839 33.8423 113.931 32.2324 112.6 31.4893C113.405 30.4676 113.89 28.9609 113.89 27.5574V27.0724C113.89 23.7287 111.165 21.8917 107.832 21.8917H102.259C97.3053 18.0217 85.0142 13.5635 85.0142 13.5635L51.7941 13.1816L38.729 21.2932L16.7474 25.029C16.7474 25.029 16.7267 25.0084 16.7164 25.0084L16.3139 25.06L16.3552 25.0909C14.5595 25.6276 13.2489 27.2684 13.2489 29.2396C13.2489 29.7556 13.3521 30.2509 13.5172 30.7153C11.2159 30.8288 9.37891 33.1508 9.37891 35.4832C9.37891 35.9992 9.48211 36.4016 9.64723 37.3614H14.219C14.7556 37.3614 15.1891 37.7948 15.1891 38.3315C15.1891 38.8681 14.7556 39.3016 14.219 39.3016H11.0301C11.7731 39.3016 12.7019 40.2716 13.7339 40.2716H25.6742C25.571 39.3016 25.5091 38.7236 25.5091 38.1457C25.5091 33.2953 29.441 29.1364 34.3017 29.1364C39.1624 29.1364 43.084 33.3985 43.084 38.2489C43.084 38.8268 43.0221 39.3016 42.9189 40.2613H79.8542C79.751 39.2912 79.6891 38.7133 79.6891 38.1354C79.6891 33.285 83.621 29.126 88.4817 29.126C93.3424 29.126 97.264 33.3882 97.264 38.2386C97.264 38.8165 97.2021 39.2912 97.0989 40.251H110.484C111.516 40.251 112.445 39.2809 113.188 39.2809H109.999C109.462 39.2809 109.029 38.8475 109.029 38.3108V38.3418ZM110.009 26.835L113.332 26.8969C113.456 30.1064 112.424 31.1281 112.424 31.1281L110.009 31.0249V26.835ZM16.5513 31.5719H13.8887C12.7639 26.7318 16.6339 26.4119 16.6339 26.4119L16.5513 31.5719ZM42.1862 21.2725C42.1862 21.2725 50.6073 14.0588 55.7673 14.2136L65.561 14.1724L65.4784 21.3448L42.1759 21.2622L42.1862 21.2725ZM77.5838 39.3119H44.6939C44.4256 39.3119 44.2089 39.0436 44.2089 38.8268C44.2089 38.6101 44.4256 38.3418 44.6939 38.3418H77.5838C77.8521 38.3418 78.0688 38.6101 78.0688 38.8268C78.0688 39.0436 77.8521 39.3119 77.5838 39.3119ZM67.2638 21.5202L67.1812 14.3478L80.0812 14.4304C84.7562 14.7503 86.7686 21.6028 86.7686 21.6028L67.2535 21.5202H67.2638ZM88.8739 21.6028C88.8739 21.6028 87.4188 17.0826 83.5488 14.5129C83.5488 14.5129 92.9812 16.2054 99.9988 21.6853L88.8739 21.6028Z" fill="black"/>
<path d="M34.0541 30.1477C29.8745 30.1477 26.4792 33.543 26.4792 37.7226C26.4792 41.9022 29.8745 45.2975 34.0541 45.2975C38.2337 45.2975 41.629 41.9022 41.629 37.7226C41.629 33.543 38.2337 30.1477 34.0541 30.1477ZM34.0541 40.6328C32.4545 40.6328 31.1542 39.3325 31.1542 37.7329C31.1542 36.1333 32.4545 34.833 34.0541 34.833C35.6537 34.833 36.954 36.1333 36.954 37.7329C36.954 39.3325 35.6537 40.6328 34.0541 40.6328Z" fill="black"/>
<path d="M88.2238 30.1477C84.0442 30.1477 80.6489 33.543 80.6489 37.7226C80.6489 41.9022 84.0442 45.2975 88.2238 45.2975C92.4034 45.2975 95.7987 41.9022 95.7987 37.7226C95.7987 33.543 92.4034 30.1477 88.2238 30.1477ZM88.2238 40.6328C86.6242 40.6328 85.3239 39.3325 85.3239 37.7329C85.3239 36.1333 86.6242 34.833 88.2238 34.833C89.8234 34.833 91.1237 36.1333 91.1237 37.7329C91.1237 39.3325 89.8234 40.6328 88.2238 40.6328Z" fill="black"/>
<path d="M9.54981 5.07406C8.58085 5.79025 7.67281 7.13331 7.58716 8.28962L7.56543 8.65173H8.00721H8.44898V9.10075C8.44174 9.49908 8.47795 9.91913 8.51417 9.91913C8.52141 9.91913 8.53589 9.99155 8.55762 10.0857C8.5721 10.1798 8.63728 10.3464 8.69522 10.4695C8.7604 10.5854 8.78213 10.6796 8.75316 10.6796C8.71695 10.6796 8.73143 10.7085 8.76764 10.7375C8.8111 10.7665 8.90525 10.9186 8.98491 11.0706C9.28909 11.6718 10.5565 12.7798 11.0852 12.9029C11.1214 12.9102 11.3386 12.9826 11.5559 13.0623C11.8673 13.1637 12.1136 13.1926 12.6785 13.1781C13.4751 13.1637 13.6344 13.1347 14.1704 12.9247C16.0199 12.1873 16.696 10.5425 16.8645 9.41941L16.9369 8.94142H18.4071C19.4138 8.94142 19.8773 8.9197 19.899 8.86176C19.9135 8.81831 19.9135 8.67346 19.899 8.5431C19.87 8.32583 19.8411 8.29686 19.6021 8.26065C19.3196 8.2172 18.284 8.13029 17.8277 8.11581C17.5597 8.10857 17.5453 8.09408 17.4584 7.80439C17.4077 7.63782 17.3859 7.47849 17.4077 7.45676C17.4294 7.43504 17.4004 7.42055 17.3497 7.42055C17.299 7.42055 17.2701 7.39882 17.299 7.3771C17.3497 7.31916 17.0528 6.71805 16.7486 6.26179C16.4444 5.79829 15.6405 5.03785 15.1553 4.74816C14.7208 4.49468 13.9241 4.17602 13.5475 4.11084C11.958 3.85254 10.7672 4.17895 9.54981 5.07406Z" fill="black"/>
<rect x="31.157" y="0.593018" width="0.98374" height="23.1455" transform="rotate(-17.4859 31.157 0.593018)" fill="black"/>
</g>
<defs>
<clipPath id="clip0_845_17566">
<rect width="114.339" height="45" fill="white" transform="translate(0.5 0.297363)"/>
</clipPath>
</defs>
</svg>
