<svg width="155" height="46" viewBox="0 0 155 46" fill="none" xmlns="http://www.w3.org/2000/svg">
<g clip-path="url(#clip0_845_17526)">
<path d="M14.8975 0.395047C14.2412 0.546493 13.3527 1.0917 12.8176 1.65709C11.2224 3.34319 11.2628 5.90767 12.9085 7.56347C15.3821 10.027 19.5216 8.66398 20.1173 5.17063C20.4 3.53502 19.5317 1.72777 18.0677 0.85948C17.1995 0.354662 15.897 0.16283 14.8975 0.395047Z" fill="black"/>
<path d="M2.80197 3.02021C2.37793 3.23223 2.01446 3.83802 2.01446 4.29235C2.01446 4.4438 2.07503 4.77698 2.1558 5.02939C2.26687 5.40295 2.26687 5.53421 2.1659 5.73613C2.00436 6.03902 1.65099 7.26068 1.57022 7.76551C1.51973 8.0583 1.44906 8.13907 1.15626 8.25013C0.651446 8.43187 0.5 8.78524 0.5 9.81507C0.5 10.8146 0.600964 11.1478 0.954337 11.3093L1.20675 11.4204V13.2781V15.1258H1.71156H2.21638V13.268C2.21638 11.4911 2.22648 11.4002 2.41831 11.3396C2.77168 11.2286 2.92313 10.7641 2.92313 9.78478C2.92313 8.96697 2.90294 8.85592 2.67072 8.58331C2.52937 8.42177 2.29715 8.25013 2.1558 8.21984C1.91349 8.15926 1.9034 8.12897 1.96397 7.72512C2.04474 7.24049 2.41831 5.99864 2.46879 6.05922C2.47889 6.06931 2.62024 6.3823 2.77168 6.73568C4.05392 9.80497 6.69917 11.9656 10.142 12.7329L10.7478 12.8743L10.7983 28.3116L10.8488 43.749L11.0709 44.1023C11.3738 44.5971 11.6767 44.8596 12.2118 45.1019C13.3628 45.6269 14.8066 45.0312 15.3114 43.8297C15.4123 43.5672 15.4426 41.8509 15.4426 34.6622V25.8279H15.897H16.3513V34.632V43.4461L16.5936 43.961C17.0782 45.011 18.2696 45.536 19.3903 45.1928C19.9153 45.0413 20.5716 44.4557 20.8038 43.961C20.9855 43.5672 20.9956 42.911 20.9956 29.0789C20.9956 20.285 21.036 14.631 21.0865 14.6714C21.2379 14.7623 21.6923 16.2263 21.8942 17.3066C22.2779 19.2754 22.4091 21.7894 22.3284 25.4947C22.288 27.1707 22.3385 27.3828 22.8837 27.7866C23.2572 28.0592 24.0044 28.1097 24.4587 27.8977C25.1452 27.5746 25.2664 27.2414 25.3573 25.2322C25.4481 23.3846 25.3977 20.9918 25.226 19.1643C24.7919 14.4897 23.3683 11.4204 21.1168 10.2997L20.3495 9.92613L15.5537 9.87565L10.7478 9.81507L9.9704 9.56266C8.08238 8.91649 6.64869 7.71502 5.82079 6.04912C5.55828 5.5443 5.25539 4.79717 5.13423 4.39332C4.87173 3.52503 4.65971 3.19185 4.19527 2.96973C3.74094 2.75771 3.26641 2.7678 2.80197 3.02021Z" fill="black"/>
<path d="M88.8325 7.32127C86.8435 7.36165 83.0877 7.54339 81.1996 7.70493C78.2919 7.95734 78.0193 8.11888 77.3327 9.98671L76.9087 11.1579L77.3125 11.7435C77.7063 12.2988 77.7265 12.319 77.8174 12.0868C78.2212 11.0569 78.5443 10.4814 78.8068 10.3401C79.3015 10.0877 80.2607 9.96652 83.7338 9.72421C86.4094 9.54247 90.5792 9.4718 93.2042 9.57276C97.7476 9.7444 100.726 9.96652 101.453 10.1886C101.867 10.3199 102.23 10.6329 102.321 10.9257C102.352 11.0468 102.877 12.1574 103.472 13.4094C104.078 14.6613 104.684 15.9436 104.825 16.2566L105.078 16.8421H92.1542C81.8963 16.8421 79.241 16.8724 79.241 16.9633C79.241 17.034 79.3116 17.6196 79.4025 18.2556C79.7054 20.497 79.6953 26.6962 79.3924 27.4635C79.3217 27.6352 79.4833 27.6453 81.9569 27.6453H84.592V25.1717V22.698H85.3493H86.1065V25.1717V27.6453H86.6113H87.1161V25.1717V22.698H87.8229H88.5296V25.1717V27.6453H89.0344H89.5393V25.1717V22.698H90.2965H91.0537V25.1717V27.6453H91.5585H92.0633V25.1717V22.698H92.8206H93.5778V25.1717V27.6453H94.0826H94.5874V25.1717V22.698H95.2942H96.0009V25.1717V27.6453H102.816H109.641L109.611 24.2327C109.581 20.8706 109.581 20.8201 109.338 20.3254C108.995 19.6287 107.733 18.4071 106.834 17.9023L106.107 17.4984L104.583 13.4094C103.745 11.1579 103.008 9.19919 102.947 9.03765C102.786 8.6237 102.23 8.18956 101.645 8.01792C100.433 7.65445 92.972 7.25059 88.8325 7.32127ZM105.047 20.6384C105.744 21.0624 106.128 21.7187 106.178 22.5567C106.239 23.4351 106.017 23.9803 105.391 24.5457C104.805 25.0707 104.199 25.2726 103.462 25.1918C101.332 24.9394 100.514 22.2437 102.15 20.8706C102.695 20.4062 103.109 20.2749 103.886 20.3052C104.431 20.3254 104.654 20.386 105.047 20.6384Z" fill="black"/>
<path d="M91.8455 7.32151C93.8345 7.3619 97.5903 7.54363 99.4783 7.70518C102.386 7.95758 102.659 8.11913 103.345 9.98695L103.769 11.1581L103.365 11.7437C102.972 12.299 102.951 12.3192 102.861 12.087C102.457 11.0572 102.134 10.4817 101.871 10.3403C101.376 10.0879 100.417 9.96676 96.9441 9.72445C94.2686 9.54272 90.0988 9.47204 87.4737 9.573C82.9304 9.74464 79.9519 9.96676 79.225 10.1889C78.8111 10.3201 78.4476 10.6331 78.3567 10.9259C78.3264 11.0471 77.8014 12.1577 77.2057 13.4096C76.5999 14.6616 75.9942 15.9438 75.8528 16.2568L75.6004 16.8424H88.5238C98.7817 16.8424 101.437 16.8727 101.437 16.9635C101.437 17.0342 101.366 17.6198 101.275 18.2559C100.973 20.4973 100.983 26.6964 101.286 27.4638C101.356 27.6354 101.195 27.6455 98.7211 27.6455H96.0859V25.1719V22.6983H95.3287H94.5715V25.1719V27.6455H94.0667H93.5619V25.1719V22.6983H92.8551H92.1484V25.1719V27.6455H91.6435H91.1387V25.1719V22.6983H90.3815H89.6243V25.1719V27.6455H89.1195H88.6146V25.1719V22.6983H87.8574H87.1002V25.1719V27.6455H86.5954H86.0905V25.1719V22.6983H85.3838H84.677V25.1719V27.6455H77.862H71.0368L71.0671 24.2329C71.0974 20.8708 71.0974 20.8204 71.3397 20.3256C71.683 19.629 72.9451 18.4073 73.8436 17.9025L74.5706 17.4987L76.0951 13.4096C76.9331 11.1581 77.6702 9.19944 77.7307 9.0379C77.8923 8.62395 78.4476 8.1898 79.0332 8.01816C80.2447 7.65469 87.706 7.25084 91.8455 7.32151ZM75.6307 20.6386C74.934 21.0627 74.5504 21.7189 74.4999 22.5569C74.4393 23.4353 74.6614 23.9805 75.2874 24.5459C75.873 25.0709 76.4788 25.2729 77.2158 25.1921C79.3462 24.9397 80.164 22.2439 78.5284 20.8708C77.9832 20.4064 77.5692 20.2752 76.7918 20.3054C76.2466 20.3256 76.0245 20.3862 75.6307 20.6386Z" fill="black"/>
<path d="M103.018 20.9717C101.12 21.8299 101.685 24.6367 103.765 24.6367C105.512 24.6367 106.35 22.4458 105.037 21.2948C104.441 20.7799 103.704 20.6587 103.018 20.9717Z" fill="black"/>
<path d="M76.1573 20.9717C74.2592 21.8299 74.8246 24.6367 76.9044 24.6367C78.6511 24.6367 79.4891 22.4458 78.1766 21.2948C77.5809 20.7799 76.8438 20.6587 76.1573 20.9717Z" fill="black"/>
<path d="M88.8729 10.4612C88.8123 10.5016 88.7113 10.6328 88.6407 10.7641C88.5397 10.9559 88.5397 11.0468 88.671 11.2487C88.8931 11.5718 89.1152 11.6122 90.5489 11.5718C91.6292 11.5415 91.7907 11.5213 91.922 11.3497C92.1138 11.0771 92.1037 10.8247 91.8614 10.5823C91.6797 10.4006 91.5282 10.3804 90.3268 10.3804C89.5897 10.3804 88.9335 10.4208 88.8729 10.4612Z" fill="black"/>
<path d="M106.986 14.3685C106.622 14.5705 106.501 14.8128 106.501 15.3176C106.501 15.7215 106.491 15.7316 106.148 15.7316C105.956 15.7316 105.794 15.7719 105.794 15.8325C105.794 15.883 105.916 16.2263 106.057 16.5897L106.33 17.2561L108.591 17.2258L110.863 17.1955L111.156 16.8623C111.428 16.5595 111.448 16.4787 111.448 15.6811C111.448 14.9339 111.418 14.8027 111.206 14.5503L110.964 14.2676L109.106 14.2474C107.612 14.2272 107.208 14.2474 106.986 14.3685Z" fill="black"/>
<path d="M74.3714 14.3659C74.7348 14.5678 74.856 14.8101 74.856 15.3149C74.856 15.7188 74.8661 15.7289 75.2094 15.7289C75.4012 15.7289 75.5627 15.7693 75.5627 15.8298C75.5627 15.8803 75.4416 16.2236 75.3002 16.5871L75.0276 17.2534L72.766 17.2231L70.4944 17.1928L70.2016 16.8597C69.929 16.5568 69.9088 16.476 69.9088 15.6784C69.9088 14.9313 69.9391 14.8 70.1511 14.5476L70.3934 14.2649L72.2511 14.2447C73.7454 14.2245 74.1493 14.2447 74.3714 14.3659Z" fill="black"/>
<path d="M75.3034 31.8858V35.5205H76.4443C77.3933 35.5205 77.6255 35.4902 77.8981 35.3186C78.2919 35.0864 78.3222 34.9551 78.3626 33.6022L78.3828 32.5421L90.6297 32.5118L102.866 32.4916V33.6931C102.866 34.8239 102.887 34.9248 103.109 35.1873L103.351 35.47H105.643H107.935L108.177 35.1873C108.419 34.9046 108.419 34.8743 108.419 32.9055V30.8964L108.773 30.8358C109.49 30.6944 110.035 29.917 110.186 28.7761L110.257 28.2511H94.5369C79.3722 28.2511 78.8068 28.2612 78.5544 28.443C77.8376 28.9377 76.9491 28.9579 76.1313 28.5035C75.2428 28.0088 75.3034 27.7665 75.3034 31.8858Z" fill="black"/>
<path d="M105.256 31.8858V35.5205H104.115C103.166 35.5205 102.934 35.4902 102.661 35.3186C102.268 35.0864 102.237 34.9551 102.197 33.6022L102.177 32.5421L89.9299 32.5118L77.6931 32.4916V33.6931C77.6931 34.8239 77.6729 34.9248 77.4508 35.1873L77.2085 35.47H74.9166H72.6247L72.3824 35.1873C72.1401 34.9046 72.1401 34.8743 72.1401 32.9055V30.8964L71.7867 30.8358C71.0699 30.6944 70.5247 29.917 70.3732 28.7761L70.3026 28.2511H86.0226C101.187 28.2511 101.753 28.2612 102.005 28.443C102.722 28.9377 103.61 28.9579 104.428 28.5035C105.317 28.0088 105.256 27.7665 105.256 31.8858Z" fill="black"/>
<path d="M45.3325 7.32127C43.3435 7.36165 39.5877 7.54339 37.6996 7.70493C34.7919 7.95734 34.5193 8.11888 33.8327 9.98671L33.4087 11.1579L33.8125 11.7435C34.2063 12.2988 34.2265 12.319 34.3174 12.0868C34.7212 11.0569 35.0443 10.4814 35.3068 10.3401C35.8015 10.0877 36.7607 9.96652 40.2338 9.72421C42.9094 9.54247 47.0792 9.4718 49.7042 9.57276C54.2476 9.7444 57.226 9.96652 57.953 10.1886C58.3669 10.3199 58.7304 10.6329 58.8213 10.9257C58.8515 11.0468 59.3766 12.1574 59.9722 13.4094C60.578 14.6613 61.1838 15.9436 61.3252 16.2566L61.5776 16.8421H48.6542C38.3963 16.8421 35.741 16.8724 35.741 16.9633C35.741 17.034 35.8116 17.6196 35.9025 18.2556C36.2054 20.497 36.1953 26.6962 35.8924 27.4635C35.8217 27.6352 35.9833 27.6453 38.4569 27.6453H41.092V25.1717V22.698H41.8493H42.6065V25.1717V27.6453H43.1113H43.6161V25.1717V22.698H44.3229H45.0296V25.1717V27.6453H45.5344H46.0393V25.1717V22.698H46.7965H47.5537V25.1717V27.6453H48.0585H48.5633V25.1717V22.698H49.3206H50.0778V25.1717V27.6453H50.5826H51.0874V25.1717V22.698H51.7942H52.5009V25.1717V27.6453H59.316H66.1411L66.1108 24.2327C66.0806 20.8706 66.0806 20.8201 65.8382 20.3254C65.495 19.6287 64.2329 18.4071 63.3343 17.9023L62.6074 17.4984L61.0828 13.4094C60.2448 11.1579 59.5078 9.19919 59.4472 9.03765C59.2857 8.6237 58.7304 8.18956 58.1448 8.01792C56.9332 7.65445 49.472 7.25059 45.3325 7.32127ZM61.5473 20.6384C62.2439 21.0624 62.6276 21.7187 62.6781 22.5567C62.7387 23.4351 62.5165 23.9803 61.8906 24.5457C61.305 25.0707 60.6992 25.2726 59.9622 25.1918C57.8318 24.9394 57.014 22.2437 58.6496 20.8706C59.1948 20.4062 59.6088 20.2749 60.3862 20.3052C60.9314 20.3254 61.1535 20.386 61.5473 20.6384Z" fill="black"/>
<path d="M48.3455 7.32151C50.3345 7.3619 54.0903 7.54363 55.9783 7.70518C58.8861 7.95758 59.1587 8.11913 59.8452 9.98695L60.2693 11.1581L59.8654 11.7437C59.4717 12.299 59.4515 12.3192 59.3606 12.087C58.9568 11.0572 58.6337 10.4817 58.3712 10.3403C57.8764 10.0879 56.9173 9.96676 53.4441 9.72445C50.7686 9.54272 46.5988 9.47204 43.9737 9.573C39.4304 9.74464 36.4519 9.96676 35.725 10.1889C35.3111 10.3201 34.9476 10.6331 34.8567 10.9259C34.8264 11.0471 34.3014 12.1577 33.7057 13.4096C33.0999 14.6616 32.4942 15.9438 32.3528 16.2568L32.1004 16.8424H45.0238C55.2817 16.8424 57.937 16.8727 57.937 16.9635C57.937 17.0342 57.8664 17.6198 57.7755 18.2559C57.4726 20.4973 57.4827 26.6964 57.7856 27.4638C57.8563 27.6354 57.6947 27.6455 55.2211 27.6455H52.5859V25.1719V22.6983H51.8287H51.0715V25.1719V27.6455H50.5667H50.0619V25.1719V22.6983H49.3551H48.6484V25.1719V27.6455H48.1435H47.6387V25.1719V22.6983H46.8815H46.1243V25.1719V27.6455H45.6195H45.1146V25.1719V22.6983H44.3574H43.6002V25.1719V27.6455H43.0954H42.5905V25.1719V22.6983H41.8838H41.177V25.1719V27.6455H34.362H27.5368L27.5671 24.2329C27.5974 20.8708 27.5974 20.8204 27.8397 20.3256C28.183 19.629 29.4451 18.4073 30.3436 17.9025L31.0706 17.4987L32.5951 13.4096C33.4331 11.1581 34.1702 9.19944 34.2307 9.0379C34.3923 8.62395 34.9476 8.1898 35.5332 8.01816C36.7447 7.65469 44.206 7.25084 48.3455 7.32151ZM32.1307 20.6386C31.434 21.0627 31.0504 21.7189 30.9999 22.5569C30.9393 23.4353 31.1614 23.9805 31.7874 24.5459C32.373 25.0709 32.9788 25.2729 33.7158 25.1921C35.8462 24.9397 36.664 22.2439 35.0284 20.8708C34.4832 20.4064 34.0692 20.2752 33.2918 20.3054C32.7466 20.3256 32.5245 20.3862 32.1307 20.6386Z" fill="black"/>
<path d="M59.5179 20.9717C57.6198 21.8299 58.1852 24.6367 60.265 24.6367C62.0117 24.6367 62.8497 22.4458 61.5371 21.2948C60.9415 20.7799 60.2044 20.6587 59.5179 20.9717Z" fill="black"/>
<path d="M32.6573 20.9717C30.7592 21.8299 31.3246 24.6367 33.4044 24.6367C35.1511 24.6367 35.9891 22.4458 34.6766 21.2948C34.0809 20.7799 33.3438 20.6587 32.6573 20.9717Z" fill="black"/>
<path d="M45.3729 10.4612C45.3123 10.5016 45.2113 10.6328 45.1407 10.7641C45.0397 10.9559 45.0397 11.0468 45.171 11.2487C45.3931 11.5718 45.6152 11.6122 47.0489 11.5718C48.1292 11.5415 48.2907 11.5213 48.422 11.3497C48.6138 11.0771 48.6037 10.8247 48.3614 10.5823C48.1797 10.4006 48.0282 10.3804 46.8268 10.3804C46.0897 10.3804 45.4335 10.4208 45.3729 10.4612Z" fill="black"/>
<path d="M63.4858 14.3685C63.1223 14.5705 63.0012 14.8128 63.0012 15.3176C63.0012 15.7215 62.9911 15.7316 62.6478 15.7316C62.456 15.7316 62.2944 15.7719 62.2944 15.8325C62.2944 15.883 62.4156 16.2263 62.5569 16.5897L62.8295 17.2561L65.0911 17.2258L67.3628 17.1955L67.6556 16.8623C67.9282 16.5595 67.9484 16.4787 67.9484 15.6811C67.9484 14.9339 67.9181 14.8027 67.7061 14.5503L67.4638 14.2676L65.606 14.2474C64.1118 14.2272 63.7079 14.2474 63.4858 14.3685Z" fill="black"/>
<path d="M30.8714 14.3659C31.2348 14.5678 31.356 14.8101 31.356 15.3149C31.356 15.7188 31.3661 15.7289 31.7094 15.7289C31.9012 15.7289 32.0627 15.7693 32.0627 15.8298C32.0627 15.8803 31.9416 16.2236 31.8002 16.5871L31.5276 17.2534L29.266 17.2231L26.9944 17.1928L26.7016 16.8597C26.429 16.5568 26.4088 16.476 26.4088 15.6784C26.4088 14.9313 26.4391 14.8 26.6511 14.5476L26.8934 14.2649L28.7511 14.2447C30.2454 14.2245 30.6493 14.2447 30.8714 14.3659Z" fill="black"/>
<path d="M31.8034 31.8858V35.5205H32.9443C33.8933 35.5205 34.1255 35.4902 34.3981 35.3186C34.7919 35.0864 34.8222 34.9551 34.8626 33.6022L34.8828 32.5421L47.1297 32.5118L59.3665 32.4916V33.6931C59.3665 34.8239 59.3866 34.9248 59.6088 35.1873L59.8511 35.47H62.143H64.4348L64.6771 35.1873C64.9195 34.9046 64.9195 34.8743 64.9195 32.9055V30.8964L65.2728 30.8358C65.9897 30.6944 66.5349 29.917 66.6863 28.7761L66.757 28.2511H51.0369C35.8722 28.2511 35.3068 28.2612 35.0544 28.443C34.3376 28.9377 33.4491 28.9579 32.6313 28.5035C31.7428 28.0088 31.8034 27.7665 31.8034 31.8858Z" fill="black"/>
<path d="M61.7562 31.8858V35.5205H60.6153C59.6663 35.5205 59.434 35.4902 59.1614 35.3186C58.7677 35.0864 58.7374 34.9551 58.697 33.6022L58.6768 32.5421L46.4299 32.5118L34.1931 32.4916V33.6931C34.1931 34.8239 34.1729 34.9248 33.9508 35.1873L33.7085 35.47H31.4166H29.1247L28.8824 35.1873C28.6401 34.9046 28.6401 34.8743 28.6401 32.9055V30.8964L28.2867 30.8358C27.5699 30.6944 27.0247 29.917 26.8732 28.7761L26.8026 28.2511H42.5226C57.6874 28.2511 58.2528 28.2612 58.5052 28.443C59.222 28.9377 60.1105 28.9579 60.9283 28.5035C61.8168 28.0088 61.7562 27.7665 61.7562 31.8858Z" fill="black"/>
<path d="M132.333 7.32127C130.344 7.36165 126.588 7.54339 124.7 7.70493C121.792 7.95734 121.519 8.11888 120.833 9.98671L120.409 11.1579L120.813 11.7435C121.206 12.2988 121.226 12.319 121.317 12.0868C121.721 11.0569 122.044 10.4814 122.307 10.3401C122.802 10.0877 123.761 9.96652 127.234 9.72421C129.909 9.54247 134.079 9.4718 136.704 9.57276C141.248 9.7444 144.226 9.96652 144.953 10.1886C145.367 10.3199 145.73 10.6329 145.821 10.9257C145.852 11.0468 146.377 12.1574 146.972 13.4094C147.578 14.6613 148.184 15.9436 148.325 16.2566L148.578 16.8421H135.654C125.396 16.8421 122.741 16.8724 122.741 16.9633C122.741 17.034 122.812 17.6196 122.902 18.2556C123.205 20.497 123.195 26.6962 122.892 27.4635C122.822 27.6352 122.983 27.6453 125.457 27.6453H128.092V25.1717V22.698H128.849H129.606V25.1717V27.6453H130.111H130.616V25.1717V22.698H131.323H132.03V25.1717V27.6453H132.534H133.039V25.1717V22.698H133.796H134.554V25.1717V27.6453H135.059H135.563V25.1717V22.698H136.321H137.078V25.1717V27.6453H137.583H138.087V25.1717V22.698H138.794H139.501V25.1717V27.6453H146.316H153.141L153.111 24.2327C153.081 20.8706 153.081 20.8201 152.838 20.3254C152.495 19.6287 151.233 18.4071 150.334 17.9023L149.607 17.4984L148.083 13.4094C147.245 11.1579 146.508 9.19919 146.447 9.03765C146.286 8.6237 145.73 8.18956 145.145 8.01792C143.933 7.65445 136.472 7.25059 132.333 7.32127ZM148.547 20.6384C149.244 21.0624 149.628 21.7187 149.678 22.5567C149.739 23.4351 149.517 23.9803 148.891 24.5457C148.305 25.0707 147.699 25.2726 146.962 25.1918C144.832 24.9394 144.014 22.2437 145.65 20.8706C146.195 20.4062 146.609 20.2749 147.386 20.3052C147.931 20.3254 148.154 20.386 148.547 20.6384Z" fill="black"/>
<path d="M135.345 7.32151C137.334 7.3619 141.09 7.54363 142.978 7.70518C145.886 7.95758 146.159 8.11913 146.845 9.98695L147.269 11.1581L146.865 11.7437C146.472 12.299 146.451 12.3192 146.361 12.087C145.957 11.0572 145.634 10.4817 145.371 10.3403C144.876 10.0879 143.917 9.96676 140.444 9.72445C137.769 9.54272 133.599 9.47204 130.974 9.573C126.43 9.74464 123.452 9.96676 122.725 10.1889C122.311 10.3201 121.948 10.6331 121.857 10.9259C121.826 11.0471 121.301 12.1577 120.706 13.4096C120.1 14.6616 119.494 15.9438 119.353 16.2568L119.1 16.8424H132.024C142.282 16.8424 144.937 16.8727 144.937 16.9635C144.937 17.0342 144.866 17.6198 144.775 18.2559C144.473 20.4973 144.483 26.6964 144.786 27.4638C144.856 27.6354 144.695 27.6455 142.221 27.6455H139.586V25.1719V22.6983H138.829H138.071V25.1719V27.6455H137.567H137.062V25.1719V22.6983H136.355H135.648V25.1719V27.6455H135.144H134.639V25.1719V22.6983H133.881H133.124V25.1719V27.6455H132.619H132.115V25.1719V22.6983H131.357H130.6V25.1719V27.6455H130.095H129.591V25.1719V22.6983H128.884H128.177V25.1719V27.6455H121.362H114.537L114.567 24.2329C114.597 20.8708 114.597 20.8204 114.84 20.3256C115.183 19.629 116.445 18.4073 117.344 17.9025L118.071 17.4987L119.595 13.4096C120.433 11.1581 121.17 9.19944 121.231 9.0379C121.392 8.62395 121.948 8.1898 122.533 8.01816C123.745 7.65469 131.206 7.25084 135.345 7.32151ZM119.131 20.6386C118.434 21.0627 118.05 21.7189 118 22.5569C117.939 23.4353 118.161 23.9805 118.787 24.5459C119.373 25.0709 119.979 25.2729 120.716 25.1921C122.846 24.9397 123.664 22.2439 122.028 20.8708C121.483 20.4064 121.069 20.2752 120.292 20.3054C119.747 20.3256 119.524 20.3862 119.131 20.6386Z" fill="black"/>
<path d="M146.518 20.9717C144.62 21.8299 145.185 24.6367 147.265 24.6367C149.012 24.6367 149.85 22.4458 148.537 21.2948C147.941 20.7799 147.204 20.6587 146.518 20.9717Z" fill="black"/>
<path d="M119.657 20.9717C117.759 21.8299 118.325 24.6367 120.404 24.6367C122.151 24.6367 122.989 22.4458 121.677 21.2948C121.081 20.7799 120.344 20.6587 119.657 20.9717Z" fill="black"/>
<path d="M132.373 10.4612C132.312 10.5016 132.211 10.6328 132.141 10.7641C132.04 10.9559 132.04 11.0468 132.171 11.2487C132.393 11.5718 132.615 11.6122 134.049 11.5718C135.129 11.5415 135.291 11.5213 135.422 11.3497C135.614 11.0771 135.604 10.8247 135.361 10.5823C135.18 10.4006 135.028 10.3804 133.827 10.3804C133.09 10.3804 132.433 10.4208 132.373 10.4612Z" fill="black"/>
<path d="M150.486 14.3685C150.122 14.5705 150.001 14.8128 150.001 15.3176C150.001 15.7215 149.991 15.7316 149.648 15.7316C149.456 15.7316 149.294 15.7719 149.294 15.8325C149.294 15.883 149.416 16.2263 149.557 16.5897L149.83 17.2561L152.091 17.2258L154.363 17.1955L154.656 16.8623C154.928 16.5595 154.948 16.4787 154.948 15.6811C154.948 14.9339 154.918 14.8027 154.706 14.5503L154.464 14.2676L152.606 14.2474C151.112 14.2272 150.708 14.2474 150.486 14.3685Z" fill="black"/>
<path d="M117.871 14.3659C118.235 14.5678 118.356 14.8101 118.356 15.3149C118.356 15.7188 118.366 15.7289 118.709 15.7289C118.901 15.7289 119.063 15.7693 119.063 15.8298C119.063 15.8803 118.942 16.2236 118.8 16.5871L118.528 17.2534L116.266 17.2231L113.994 17.1928L113.702 16.8597C113.429 16.5568 113.409 16.476 113.409 15.6784C113.409 14.9313 113.439 14.8 113.651 14.5476L113.893 14.2649L115.751 14.2447C117.245 14.2245 117.649 14.2447 117.871 14.3659Z" fill="black"/>
<path d="M118.803 31.8858V35.5205H119.944C120.893 35.5205 121.126 35.4902 121.398 35.3186C121.792 35.0864 121.822 34.9551 121.863 33.6022L121.883 32.5421L134.13 32.5118L146.366 32.4916V33.6931C146.366 34.8239 146.387 34.9248 146.609 35.1873L146.851 35.47H149.143H151.435L151.677 35.1873C151.919 34.9046 151.919 34.8743 151.919 32.9055V30.8964L152.273 30.8358C152.99 30.6944 153.535 29.917 153.686 28.7761L153.757 28.2511H138.037C122.872 28.2511 122.307 28.2612 122.054 28.443C121.338 28.9377 120.449 28.9579 119.631 28.5035C118.743 28.0088 118.803 27.7665 118.803 31.8858Z" fill="black"/>
<path d="M148.756 31.8858V35.5205H147.615C146.666 35.5205 146.434 35.4902 146.161 35.3186C145.768 35.0864 145.737 34.9551 145.697 33.6022L145.677 32.5421L133.43 32.5118L121.193 32.4916V33.6931C121.193 34.8239 121.173 34.9248 120.951 35.1873L120.708 35.47H118.417H116.125L115.882 35.1873C115.64 34.9046 115.64 34.8743 115.64 32.9055V30.8964L115.287 30.8358C114.57 30.6944 114.025 29.917 113.873 28.7761L113.803 28.2511H129.523C144.687 28.2511 145.253 28.2612 145.505 28.443C146.222 28.9377 147.11 28.9579 147.928 28.5035C148.817 28.0088 148.756 27.7665 148.756 31.8858Z" fill="black"/>
</g>
<defs>
<clipPath id="clip0_845_17526">
<rect width="154.448" height="45" fill="white" transform="translate(0.5 0.297363)"/>
</clipPath>
</defs>
</svg>
