<svg width="90" height="46" viewBox="0 0 90 46" fill="none" xmlns="http://www.w3.org/2000/svg">
<g clip-path="url(#clip0_845_17640)">
<path d="M53.3864 12.3829L41.301 24.4683H65.4495C78.7268 24.4683 89.5869 24.4348 89.5869 24.3903C89.5869 24.3012 65.6166 0.29747 65.5275 0.29747C65.4941 0.29747 60.0362 5.73311 53.3864 12.3829Z" fill="black"/>
<path d="M47.0376 11.6029C47.0376 14.2651 47.071 16.4482 47.1267 16.4482C47.227 16.4482 56.7282 6.94701 56.7282 6.83562C56.7282 6.79106 54.545 6.75765 51.8829 6.75765H47.0376V11.6029Z" fill="black"/>
<path d="M74.2158 6.84667C74.2158 6.89122 76.399 9.10781 79.0611 11.7699L83.9064 16.6152V11.6808V6.75756H79.0611C76.399 6.75756 74.2158 6.79098 74.2158 6.84667Z" fill="black"/>
<path d="M2.8729 22.129C1.58082 23.5993 0.522653 24.858 0.500376 24.9137C0.478099 24.9805 1.44716 25.0251 3.14023 25.0251H5.82463V33.6018V42.1786H4.59939H3.37414V43.738V45.2974L46.0128 45.2751L88.6402 45.2417V43.738V42.2342L86.2788 42.2008L83.9063 42.1786V34.1031V26.0276H65.4719H47.0375V34.1031V42.1786H41.0227H35.0078L35.509 41.7219C36.0994 41.1761 36.4001 40.4632 36.389 39.6167C36.3556 37.5783 34.217 36.2417 32.3902 37.0993C30.5412 37.957 30.1291 40.1402 31.5214 41.6328L32.0338 42.1786H26.3642H20.6947L21.1068 41.8444C22.41 40.7639 22.41 38.6031 21.0957 37.4781C19.9261 36.4756 17.9323 36.6761 17.0078 37.8902C16.0833 39.1043 16.2615 40.9087 17.3865 41.8444L17.7986 42.1786H13.4212H9.05483V33.6018V25.0251H23.8469H38.6279L41.4125 22.2404L44.1972 19.4558H24.7046H5.21201L2.8729 22.129ZM70.7628 37.1105V42.4013H65.4719H60.1811V37.1105V31.8196H65.4719H70.7628V37.1105ZM20.0821 38.4805C20.5165 38.7924 20.7838 39.4385 20.6947 39.9174C20.5944 40.4521 20.0264 41.0201 19.4917 41.1204C18.6563 41.2763 17.7986 40.5523 17.7986 39.6724C17.7986 38.5028 19.1464 37.8011 20.0821 38.4805ZM34.1835 38.3469C35.2529 38.8592 35.2863 40.4187 34.2281 40.9533C33.7046 41.2206 33.4595 41.2318 32.9472 41.0201C31.8667 40.5635 31.8444 38.8815 32.9026 38.358C33.3816 38.1241 33.7046 38.1241 34.1835 38.3469Z" fill="black"/>
<path d="M26.5202 27.6985C23.4348 27.977 21.2739 29.2245 20.1378 31.4077C19.8593 31.9424 19.7591 32.0203 18.9794 32.3656C17.7207 32.9337 15.2591 33.9362 15.1031 33.9362C14.8692 33.9362 14.5128 34.5042 14.29 35.2617C14.1564 35.6627 13.967 36.0971 13.8556 36.2196C13.5103 36.5983 13.3989 36.9102 13.3989 37.4894C13.3989 38.4584 13.8111 39.1156 14.6799 39.5166C15.4262 39.8619 15.5932 39.8062 15.6712 39.1936C15.894 37.6119 17.2529 36.2753 18.8346 36.0859C19.4806 36.008 20.5833 36.2753 21.1737 36.654C21.9868 37.1664 22.6663 38.2468 22.8222 39.2493L22.889 39.7282H26.4422H29.9955V39.3384C29.9955 38.2357 30.92 36.9436 32.0895 36.4089C32.9249 36.0302 34.1279 36.008 34.9187 36.3532C36.0326 36.8545 36.9571 38.0463 37.0908 39.1825C37.1465 39.6948 37.1687 39.7171 37.4472 39.6614C37.9707 39.5389 38.4608 39.2604 38.7393 38.9263C39.3073 38.258 39.363 37.0995 38.8618 36.3644C38.7059 36.1305 38.5611 35.6515 38.4719 35.1057C37.8148 31.0624 35.9212 28.7122 32.7244 27.9993C31.087 27.6317 28.67 27.5092 26.5202 27.6985Z" fill="black"/>
</g>
<defs>
<clipPath id="clip0_845_17640">
<rect width="89.087" height="45" fill="white" transform="translate(0.5 0.297363)"/>
</clipPath>
</defs>
</svg>
