<svg width="120" height="120" viewBox="0 0 120 120" fill="none" xmlns="http://www.w3.org/2000/svg">
<rect width="120" height="120" fill="#FF2400"/>
<path d="M77.6652 36.7779V57.4095H87.1946C91.5738 57.4095 94.997 56.6385 97.4641 55.0966C99.9313 53.4929 101.165 50.6557 101.165 46.5849C101.165 43.0075 99.993 40.4787 97.6492 38.9984C95.3054 37.5181 91.913 36.7779 87.4722 36.7779H77.6652ZM86.6395 67.0314H77.6652V93.1216H65.9154V26.8785H87.4722C95.9222 26.8785 102.275 28.4513 106.531 31.5969C110.848 34.7425 113.007 39.7694 113.007 46.6774C113.007 52.1668 111.774 56.4226 109.306 59.4449C106.839 62.4055 103.447 64.4717 99.1295 65.6436L115.968 93.1216H102.553L86.6395 67.0314Z" fill="white"/>
<path d="M24.267 93.1216V64.9035L2.34021 26.8785H15.4778L30.8358 54.819L46.5639 26.8785H57.9437L36.1094 64.9035V93.1216H24.267Z" fill="white"/>
</svg>
