<svg width="1000" height="1000" viewBox="0 0 1000 1000" fill="none" xmlns="http://www.w3.org/2000/svg">
<rect width="1000" height="1000" fill="#0C63AA"/>
<path d="M809.161 500C577.522 555.668 536.743 600.752 486.516 857.146C436.23 600.692 395.511 555.608 163.871 500C395.511 444.392 436.23 399.308 486.516 142.854C536.802 399.308 577.522 444.392 809.161 500Z" fill="white"/>
<path d="M850 268.779C776.992 286.298 764.197 300.529 748.351 381.31C732.506 300.529 719.71 286.298 646.703 268.779C719.71 251.259 732.506 237.029 748.351 156.248C764.197 237.029 776.992 251.259 850 268.779Z" fill="white"/>
<path d="M273.414 691.339C229.107 701.982 221.334 710.593 211.707 759.623C202.08 710.593 194.307 701.982 150 691.339C194.307 680.696 202.08 672.086 211.707 623.055C221.334 672.086 229.107 680.696 273.414 691.339Z" fill="white"/>
</svg>
