<svg width="85" height="46" viewBox="0 0 85 46" fill="none" xmlns="http://www.w3.org/2000/svg">
<g clip-path="url(#clip0_845_17678)">
<path d="M73.0343 0.434628C72.6651 0.603436 71.399 1.69013 66.9256 5.64655L63.6761 8.53737L62.1779 7.83049C59.7619 6.68049 57.6201 5.78371 56.122 5.28783C52.7247 4.15894 48.6101 3.3571 45.5504 3.21995L44.8647 3.1883V8.82224V14.4456L46.7637 15.1103C49.4013 16.0176 52.4504 17.3892 52.8197 17.8323C52.9674 18.0222 51.1422 19.6997 41.0665 28.6571C32.911 35.9158 31.8243 36.9497 31.033 38.163C30.7271 38.6378 30.7271 38.6484 30.7271 40.2731C30.7271 41.8662 30.7376 41.919 31.033 42.4887C31.4761 43.3433 32.4784 44.2823 33.4174 44.736C34.578 45.3057 35.2215 45.4112 36.3293 45.1896C37.9119 44.8837 38.1335 44.736 39.9165 42.7947C47.9137 34.0695 74.5114 4.13784 75.3343 2.92453C75.5665 2.58692 75.5559 2.02775 75.3132 1.50023C75.0811 0.993801 74.7435 0.66674 74.2265 0.445179C73.7518 0.255272 73.4564 0.24472 73.0343 0.434628ZM36.7619 38.0364C37.5848 38.4584 38.0913 39.3025 38.0913 40.2731C38.1018 42.763 34.9261 43.7231 33.4702 41.6658C33.2064 41.2754 33.1537 41.0855 33.122 40.4419C33.0904 39.8194 33.122 39.5873 33.3119 39.1759C33.5757 38.6272 34.1454 38.0892 34.694 37.8782C35.1899 37.6883 36.2344 37.7727 36.7619 38.0364Z" fill="black"/>
<path d="M38.64 3.30447C32.4891 3.9586 26.8446 5.75217 21.6538 8.7063C20.4932 9.36043 17.4863 11.3439 17.4863 11.4389C17.4863 11.4916 18.7629 12.7999 20.3244 14.3613L23.173 17.21L24.5235 16.5664C26.6758 15.543 28.4377 14.9416 30.9698 14.3719C32.9744 13.9182 33.523 13.876 37.0574 13.8022L40.5391 13.7389L40.5707 11.8398C40.5918 10.7953 40.5707 8.41089 40.5391 6.53291C40.4652 3.15676 40.4652 3.13566 40.2331 3.14621C40.117 3.15676 39.3996 3.23062 38.64 3.30447Z" fill="black"/>
<path d="M12.517 15.7643C7.42109 20.9762 3.89724 26.9372 1.94541 33.679C1.27018 36.0106 0.5 39.9143 0.5 41.0221V41.5391H3.66513C5.73302 41.5391 6.83027 41.4969 6.83027 41.4336C6.83027 41.1381 7.4844 37.5404 7.66375 36.823C9.28852 30.4611 13.2871 24.3207 18.383 20.3221C18.9316 19.8895 19.3748 19.4886 19.3853 19.4148C19.3853 19.2987 14.2367 14.2134 14.1101 14.2134C14.0679 14.2134 13.3504 14.9097 12.517 15.7643Z" fill="black"/>
<path d="M66.0709 19.2986L60.9329 24.3945L61.7874 25.5234C65.153 29.9862 66.9677 34.1431 67.9067 39.566C68.065 40.5367 68.2443 41.3702 68.276 41.4124C68.3182 41.444 72.0847 41.4968 76.6425 41.5179L84.9351 41.5601L84.8718 40.6633C84.703 38.5954 83.8695 34.8289 82.9622 32.1069C81.2319 26.9266 78.4255 22.0101 74.8384 17.8532C74.0787 16.967 71.3884 14.2133 71.2829 14.2133C71.2406 14.2133 68.8984 16.5027 66.0709 19.2986Z" fill="black"/>
</g>
<defs>
<clipPath id="clip0_845_17678">
<rect width="84.4352" height="45" fill="white" transform="translate(0.5 0.297363)"/>
</clipPath>
</defs>
</svg>
