<svg width="62" height="46" viewBox="0 0 62 46" fill="none" xmlns="http://www.w3.org/2000/svg">
<g clip-path="url(#clip0_845_17654)">
<path d="M44.5043 1.0294C38.5009 2.23335 33.5712 6.60985 31.6677 12.4181C31.4074 13.2315 31.1471 14.3379 31.082 14.8585C31.0169 15.3954 30.9193 15.8997 30.8867 15.9648C30.8379 16.0462 29.9757 15.2978 28.9669 14.3053C26.9983 12.353 26.6892 12.2066 25.892 12.8411C25.5992 13.0689 25.469 13.3292 25.469 13.6871C25.469 14.1264 25.7781 14.5168 27.6328 16.4041C31.1308 19.9671 32.0582 20.7969 32.5788 20.7969C32.9367 20.7969 33.62 20.1949 36.2231 17.608C37.9965 15.8347 39.4771 14.224 39.5259 14.0125C39.6397 13.5732 39.2655 12.7435 38.8913 12.597C38.1104 12.3042 37.8013 12.4831 35.8978 14.3704C34.8728 15.3954 34.0105 16.2414 33.9942 16.2414C33.9942 16.2414 34.043 15.8184 34.1244 15.2978C34.3522 13.8335 35.1168 11.8161 35.9628 10.4657C38.4358 6.49596 42.2591 4.21823 47.1888 3.77895C48.2951 3.68134 48.5392 3.59999 48.9296 3.20952C49.5153 2.64009 49.5316 1.95677 48.9622 1.28972C48.5554 0.78536 48.5229 0.78536 47.0586 0.80163C46.2289 0.80163 45.09 0.915518 44.5043 1.0294Z" fill="black"/>
<path d="M6.12442 1.33896C5.70142 1.583 5.31095 2.16871 5.29468 2.62425C5.29468 3.11234 5.73395 3.79566 6.1895 4.00716C6.48235 4.13732 7.78391 4.2024 10.3057 4.2024H13.9989L17.3179 16.616C19.1726 23.5631 20.8483 29.4527 21.0924 30.0059C21.9059 31.7304 23.4352 32.9995 25.2899 33.4225C26.624 33.7479 45.3177 33.7479 46.6518 33.4225C48.3438 33.032 49.7756 31.7955 50.5565 30.0709C50.7029 29.7618 52.0533 26.2476 53.5501 22.2616C56.1207 15.4609 56.2834 14.9566 56.2834 13.8828C56.2996 12.9066 56.2183 12.5812 55.7627 11.6538C55.177 10.4662 54.4774 9.79911 53.1759 9.21341C52.46 8.88802 52.0858 8.83921 48.9295 8.7904C47.026 8.75786 45.2038 8.77413 44.8784 8.83921C43.5931 9.08325 43.1213 10.3523 43.9348 11.3447L44.3578 11.8328L48.1649 11.8816C52.4926 11.9304 52.6553 11.9792 53.1271 13.2808L53.3549 13.9478L50.6216 21.2366C49.1248 25.2389 47.7256 28.8182 47.5304 29.1761C47.3026 29.6154 46.9609 29.9408 46.4566 30.2011L45.7407 30.559H36.0441C29.7315 30.559 26.1522 30.4939 25.7455 30.3801C25.4038 30.2824 24.8506 29.9408 24.509 29.5991C23.7769 28.867 23.9558 29.4852 19.8559 14.1268C18.1964 7.91185 16.7647 2.57544 16.6671 2.29886C16.5695 2.00601 16.3091 1.61554 16.0814 1.43658C15.6909 1.12746 15.4306 1.11119 11.0866 1.11119C7.60495 1.12746 6.41727 1.17627 6.12442 1.33896Z" fill="black"/>
<path d="M23.4027 35.2445C22.3777 35.6187 21.5317 36.237 20.8809 37.1318C20.0674 38.2544 19.8885 38.8238 19.8722 40.3206C19.8559 41.5734 19.9047 41.8174 20.3928 42.7936C20.9948 44.0301 21.7269 44.7459 23.0285 45.3479C24.2975 45.9499 26.136 45.9499 27.4375 45.3316C28.6089 44.7947 29.6176 43.786 30.1545 42.6146C30.4962 41.8825 30.5775 41.4595 30.5938 40.402C30.5938 39.2468 30.5287 38.9702 30.0569 38.0103C29.4712 36.8227 28.6415 35.9929 27.4375 35.4072C26.4125 34.9029 24.5741 34.8378 23.4027 35.2445ZM26.6728 37.929C27.4375 38.3683 28.072 39.4583 28.072 40.3532C28.072 42.9563 24.932 44.2253 23.1586 42.338C21.792 40.8575 22.3289 38.3683 24.1673 37.6687C24.7856 37.4409 26.0546 37.5711 26.6728 37.929Z" fill="black"/>
<path d="M43.8534 35.3097C42.6169 35.7978 41.2503 37.1807 40.7947 38.4172C39.786 41.0854 40.8923 43.9 43.4467 45.2016C44.4391 45.7222 44.6831 45.771 45.8708 45.771C46.9771 45.771 47.3351 45.6896 48.116 45.3154C50.3612 44.2091 51.6465 41.7199 51.1747 39.4096C50.8005 37.62 49.9219 36.416 48.3763 35.6025C47.0097 34.8704 45.2363 34.7565 43.8534 35.3097ZM47.091 37.7827C47.8557 38.1894 48.539 39.1005 48.6529 39.8977C49.0271 42.3381 46.5053 44.079 44.3903 42.8425C42.6494 41.8175 42.5518 39.2306 44.2276 38.0267C44.7482 37.6525 45.0411 37.5549 45.7569 37.5549C46.245 37.5549 46.847 37.6688 47.091 37.7827Z" fill="black"/>
</g>
<defs>
<clipPath id="clip0_845_17654">
<rect width="60.58" height="45" fill="white" transform="translate(0.5 0.797363)"/>
</clipPath>
</defs>
</svg>
