<svg width="54" height="46" viewBox="0 0 54 46" fill="none" xmlns="http://www.w3.org/2000/svg">
<g clip-path="url(#clip0_845_17666)">
<path d="M15.1129 0.403809C13.443 0.685059 11.7819 2.28467 11.3688 4.00732C10.6569 7.03076 12.9596 9.96631 16.0446 9.9751C17.3454 9.9751 18.5143 9.4917 19.4635 8.53369C20.7204 7.27686 21.1686 5.65967 20.7292 3.96338C20.5006 3.05811 20.1227 2.40771 19.4196 1.71338C18.2682 0.57959 16.7829 0.131348 15.1129 0.403809Z" fill="black"/>
<path d="M31.0122 0.43922C29.8433 0.702892 28.648 1.52906 28.0239 2.50465C27.3735 3.51539 27.0923 4.91285 27.312 6.03785C27.6724 7.86598 29.1577 9.42164 30.9419 9.84352C33.9741 10.5554 36.9009 8.24391 36.9009 5.14137C36.9009 3.56813 36.0132 1.93336 34.6948 1.08961C33.6577 0.430431 32.2075 0.166759 31.0122 0.43922Z" fill="black"/>
<path d="M12.3355 9.77295C10.9205 9.95752 9.65487 10.7749 9.12753 11.8472C8.91659 12.2866 8.62655 13.4644 7.7037 17.7095C6.35898 23.9321 6.32382 24.187 6.8248 25.1978C6.983 25.5142 7.29062 25.98 7.50155 26.2173L7.89706 26.6567V34.9097C7.89706 44.1821 7.86191 43.6372 8.55624 44.4106C9.10995 45.0171 9.62851 45.2544 10.4459 45.2544C10.9557 45.2544 11.2017 45.2104 11.5094 45.061C12.0807 44.7798 12.608 44.2173 12.8189 43.6636C12.9859 43.2065 12.9947 42.9692 12.9947 35.3491V27.5005L13.399 27.3071C13.9703 27.0259 14.6383 26.3579 14.9283 25.7866C15.1041 25.4526 15.315 24.6528 15.6226 23.2114C15.8687 22.0601 16.0709 21.1021 16.0709 21.0757C16.0709 21.0493 16.2818 21.2251 16.5367 21.4536C17.6969 22.5083 19.2877 23.1938 21.6519 23.686C23.1725 23.9937 24.0162 24.0815 24.4117 23.9585C24.8248 23.8354 25.3346 23.4224 25.5191 23.0708C25.6334 22.8511 25.7037 22.8159 26.2838 22.7632C28.7008 22.5435 30.3707 22.0073 31.4781 21.1108C31.7506 20.8823 31.9791 20.7153 31.9791 20.7329C31.9791 20.979 32.9898 25.3472 33.1129 25.646C33.315 26.1206 33.7984 26.6743 34.317 27.0347C34.6422 27.2544 34.774 27.2896 35.3014 27.2896H35.9166L36.1099 26.9028C36.2769 26.5425 36.9273 25.8481 37.2701 25.6548C37.4019 25.5845 37.3844 25.4702 37.1207 24.3452C36.5582 21.9458 35.9781 19.9683 35.3453 18.3423C34.9586 17.314 34.8883 16.9624 35.0816 16.8921C35.2926 16.8218 35.5123 17.0239 35.7144 17.481C36.1187 18.395 37.3404 22.4907 37.8678 24.6968C38.1139 25.7427 38.1226 25.8481 37.9908 25.9272C37.2349 26.3843 37.0416 26.5513 36.8043 26.9116C36.6637 27.1489 36.5142 27.439 36.4879 27.5708L36.4439 27.8169H34.607H32.7701V33.1782V38.5396H40.0211H47.2721V33.1782V27.8169L45.4527 27.7993L43.6422 27.7729L43.5191 27.4038C43.3521 26.9204 42.7896 26.2964 42.3062 26.0591C42.0074 25.9097 41.9107 25.8218 41.9107 25.6636C41.9107 25.2681 38.5885 12.1899 38.3687 11.6978C38.0699 11.0562 37.4283 10.3794 36.857 10.1069C35.7408 9.57959 34.3258 9.62354 33.1217 10.2124C32.3658 10.5815 31.3375 11.5308 31.0211 12.1548C30.7926 12.5942 30.5377 13.5962 30.3971 14.5894C30.2476 15.6353 29.9049 16.936 29.6588 17.4194C29.0787 18.5708 28.0064 18.9312 24.7721 19.0718C23.2867 19.1421 22.9527 19.2388 22.4957 19.7397L22.2672 19.9858L21.6959 19.854C21.3795 19.7837 20.9137 19.6431 20.6588 19.5552C18.7691 18.8521 18.3033 18.1226 17.8287 15.1343C17.4244 12.5679 17.1783 11.9614 16.1851 11.0298C15.1305 10.0366 13.7418 9.58838 12.3355 9.77295ZM39.5113 27.562C39.9947 27.7202 40.6363 27.6235 41.067 27.3159C41.4098 27.0698 41.4713 27.061 41.7086 27.1577C41.9459 27.2544 42.3502 27.6675 42.3502 27.8081C42.3502 27.8345 41.3219 27.8521 40.065 27.8345C38.8082 27.8257 37.7799 27.7729 37.7799 27.7378C37.7799 27.606 38.0787 27.2983 38.3336 27.1665C38.5709 27.0522 38.6148 27.061 38.8873 27.2456C39.0543 27.3599 39.3355 27.5005 39.5113 27.562Z" fill="black"/>
<path d="M35.1606 41.3697C35.187 43.3824 35.1958 43.523 35.3804 43.8746C35.644 44.358 36.1187 44.815 36.6284 45.0611C37.2261 45.3511 38.1929 45.3335 38.7905 45.0259C39.3179 44.7535 39.7134 44.3492 39.9946 43.813C40.188 43.4351 40.1968 43.3209 40.2231 41.3257L40.2495 39.2427H37.6919H35.1343L35.1606 41.3697Z" fill="black"/>
</g>
<defs>
<clipPath id="clip0_845_17666">
<rect width="52.8" height="45" fill="white" transform="translate(0.5 0.297363)"/>
</clipPath>
</defs>
</svg>
