<svg width="200" height="41" viewBox="0 0 200 41" fill="none" xmlns="http://www.w3.org/2000/svg">
<g clip-path="url(#clip0_764_2822)">
<path d="M0 20.1587V40.2114H100H200V20.1587V0.105885H100H0V20.1587ZM42.75 11.3104C42.95 11.8368 43.4 13.1151 43.75 14.1428C44.15 15.1705 45.15 18.003 45.95 20.4093C47.95 26.1494 49 28.9568 49.3 29.4832C49.55 29.8842 49.2 29.9344 47.05 29.9344H44.55L44.2 28.7312C44.05 28.0795 43.75 27.1019 43.55 26.5505L43.25 25.5478L39.7 25.4726L36.15 25.3974L35.8 27.1019C35.3 29.8592 35.2 29.9344 32.7 29.9344C30.2 29.9344 30.15 29.8592 31 27.7536C31.25 27.1019 32.05 24.846 32.8 22.7906C33.5 20.7101 34.5 17.9027 35 16.5241C35.5 15.1455 36.2 13.1903 36.5 12.1877L37.1 10.3829H39.75H42.45L42.75 11.3104ZM20.7 13.3156C21.45 14.8196 22.3 16.4489 22.6 17.0003C22.85 17.5267 23.15 17.9027 23.25 17.8777C23.35 17.8275 24 16.5993 24.7 15.1455C27.1 10.2576 26.75 10.6336 29.25 10.6336C31.7 10.6336 31.8 10.7339 31 12.1375C30.7 12.6138 29.8 14.2431 29 15.7721C28.15 17.2761 27.05 19.3064 26.5 20.284C25.75 21.6877 25.55 22.8407 25.5 25.974V29.9344H23.25H21V26.2246C21 23.0663 20.8 22.2141 19.7 20.1587C18.2 17.3513 17.5 16.0729 15.85 12.9397L14.55 10.6336H16.95H19.35L20.7 13.3156ZM56.35 11.561C59.5 17.0505 61.85 21.0861 62.8 22.5399L63.9 24.2945L63.95 17.4515L64 10.6336H65.75H67.5V20.284V29.9344H64.85H62.15L60.35 26.751C57.3 21.3869 54.5 16.5492 54.3 16.2734C54.2 16.123 54.25 19.156 54.4 22.966L54.65 29.9344H52.35H50V20.284V10.6336H52.9H55.85L56.35 11.561ZM82.8 11.7365C86.25 13.5412 87.2 15.3961 87.15 20.1587C87.1 24.7959 86.2 26.7009 83.1 28.4054C81 29.6085 79.1 29.9093 74.15 29.9344H71V20.284V10.6336H75.85H80.65L82.8 11.7365ZM101.5 12.3882V14.1428H98H94.5V16.0228V17.9027H97.75H101V19.7827V21.6626H97.75H94.5V23.9185V26.1745H98H101.5L101.55 27.8539V29.5584L104.75 24.6956L107.95 19.8579L104.95 15.3209C103.35 12.8394 102 10.7589 102 10.7088C102 10.6837 103.1 10.6336 104.5 10.6336H106.95L107.5 11.6864C107.8 12.2879 108.7 13.7418 109.45 14.9449L110.8 17.1006L111.9 15.3209C112.5 14.3183 113.35 12.8645 113.85 12.0623L114.7 10.6336H117.1C118.4 10.6336 119.5 10.6837 119.5 10.7589C119.5 10.809 119.05 11.4608 118.55 12.1877C118 12.9146 116.65 14.9951 115.5 16.8249L113.45 20.1336L116.05 23.9687C117.45 26.0742 118.95 28.28 119.3 28.8565L119.95 29.9344H117.5H115.05L112.9 26.5505C111.75 24.6705 110.65 23.2418 110.45 23.342C110.3 23.4674 109.4 24.7207 108.55 26.1745C105.95 30.4106 107.3 29.9344 98 29.9344H90V20.284V10.6336H95.75H101.5V12.3882ZM131.75 11.4608C135.3 13.2404 135.45 18.6046 132 20.9608L131.05 21.6125L133.45 25.0966C137.05 30.2602 137 29.9344 134.15 29.9344H131.75L130.05 27.1019C127.85 23.4172 127.2 22.6653 126.3 22.6653C125.65 22.6653 125.5 23.2418 125.4 26.2246L125.25 29.8091L123.15 29.8842L121 29.9594V20.309V10.6336H125.55C130 10.6336 130.15 10.6587 131.75 11.4608ZM149 12.3882V14.1428H145.5H142V16.0228V17.9027H145.25H148.5V19.7827V21.6626H145.25H142V23.9185V26.1745H145.5H149V28.0544V29.9344H143.25H137.5V20.284V10.6336H143.25H149V12.3882ZM161 17.251L164.75 23.718L164.9 17.1758L165 10.6336H167H169V20.284V29.9344H166.3C163.65 29.9344 163.55 29.9093 163.05 29.1323C162.75 28.6811 161.05 25.7233 159.25 22.5399C157.45 19.3816 155.85 16.7497 155.75 16.6745C155.6 16.6244 155.5 19.5821 155.5 23.2418V29.9344H153.5H151.5V20.284V10.6085L154.35 10.6837L157.2 10.7589L161 17.251ZM185.5 12.3882V14.1428H182.75H180V22.0637V29.9594L177.9 29.8842L175.75 29.8091L175.6 21.9634L175.5 14.1428H173H170.5V12.3882V10.6336H178H185.5V12.3882Z" fill="#FF2400"/>
<path d="M39.35 15.4462C38.75 17.7774 37.95 20.5597 37.75 21.0861C37.5 21.6125 37.65 21.6626 39.75 21.6626C41 21.6626 42 21.5874 42 21.4621C41.95 20.9357 40 14.5439 39.85 14.4687C39.7 14.4185 39.5 14.8697 39.35 15.4462Z" fill="#FF2400"/>
<path d="M75.5 20.1585V26.1743H77C81.15 26.1743 82.65 24.5701 82.65 20.1585C82.7 15.7218 81.2 14.1427 77.05 14.1427H75.5V20.1585Z" fill="#FF2400"/>
<path d="M125.5 16.6744V19.2061L126.9 19.0306C129.05 18.7799 129.65 18.2786 129.9 16.6744C130.1 15.4211 129.95 15.1203 129.05 14.6691C128.5 14.3934 127.45 14.1427 126.75 14.1427H125.5V16.6744Z" fill="#FF2400"/>
<path d="M15 10.7593C15 10.8595 16.45 13.6168 18.25 16.8754L21.5 22.816V26.25V29.6841H23.25H25V26.0495C25 22.6656 25.1 22.1894 26.7 19.3318C27.65 17.6524 29 15.1709 29.75 13.8424C30.45 12.5139 31.15 11.2355 31.3 11.0099C31.55 10.7091 31.2 10.634 29.35 10.634C27.25 10.634 27.1 10.6841 26.8 11.4361C26.25 12.915 23.35 18.4044 23.15 18.3292C22.95 18.2039 21.1 14.82 20.05 12.5139L19.2 10.7593L17.1 10.6841C15.95 10.634 15 10.6841 15 10.7593Z" fill="white"/>
<path d="M37.3 11.0601C37 11.6115 35.95 14.444 34.5 18.6551C33.9 20.3846 32.85 23.3173 32.2 25.1722C31.55 27.0271 30.9 28.8068 30.8 29.1326C30.65 29.634 30.85 29.6841 32.75 29.6841H34.85L35.5 27.4281L36.15 25.1722H39.8H43.45L43.8 26.3503C44.75 29.7843 44.55 29.5588 46.9 29.634C48.9 29.7091 49 29.6841 48.8 29.1326C48.65 28.8068 48.15 27.4783 47.7 26.1748C47.25 24.8714 46.35 22.2646 45.7 20.4097C45.05 18.5548 44 15.597 43.4 13.8173L42.3 10.634H39.95C38.1 10.634 37.5 10.7342 37.3 11.0601ZM41.25 17.9031C41.7 19.3569 42.2 20.8358 42.35 21.2118C42.6 21.9136 42.6 21.9136 39.9 21.9136H37.15L37.8 19.9585C38.15 18.9057 38.7 17.0007 39.05 15.7725C39.75 13.2157 39.8 13.2408 41.25 17.9031Z" fill="white"/>
<path d="M50.5 20.1589V29.6839H52.25H54.05L53.9 22.5652C53.75 16.0731 53.95 14.5942 54.65 16.1984C54.75 16.5243 56.15 18.9808 57.75 21.6628C59.3 24.3449 61 27.2275 61.45 28.0546L62.25 29.5586L64.9 29.6338L67.5 29.709V20.1839V10.6338H65.75H64L63.95 17.7024C63.9 25.5982 64.1 25.4478 61 20.0335C60.15 18.5045 59 16.5995 58.5 15.7723C58 14.9451 57.1 13.4412 56.55 12.4385L55.45 10.6338H53H50.5V20.1589Z" fill="white"/>
<path d="M71.5 20.159V29.6841H75.4C79 29.6841 79.55 29.6089 81.4 28.9321C84.65 27.754 86.2 25.8991 87 22.1392C87.85 18.2791 86.25 14.0179 83.3 12.2382C81.35 11.035 79.3 10.634 75 10.634H71.5V20.159ZM80.65 14.6445C82.45 15.6973 83.15 17.7527 82.9 20.911C82.75 22.816 82.4 23.8437 81.65 24.6709C80.45 26.0495 79.8 26.3252 77.4 26.5508L75.5 26.7263V20.3094V13.8925H77.45C79 13.8925 79.65 14.0429 80.65 14.6445Z" fill="white"/>
<path d="M90 20.159V29.6841H95.5H101V28.1801V26.6762H97.5H94V24.0442V21.4123H97.25H100.5V19.9084V18.4044H97.25H94V16.1485V13.8925H97.5H101V12.2632V10.634H95.5H90V20.159Z" fill="white"/>
<path d="M102.5 10.8595C102.5 10.9849 103.75 12.9902 105.25 15.2962C106.75 17.6274 108 19.6828 108 19.8833C108 20.0588 106.65 22.2896 105 24.8464C103.35 27.378 102 29.5086 102 29.5838C102 29.659 102.95 29.6841 104.05 29.634L106.1 29.5588L108.1 26.3002C109.2 24.4954 110.25 22.9664 110.45 22.8411C110.65 22.7408 111.2 23.2421 111.6 23.969C112.05 24.696 113.05 26.2751 113.75 27.4783L115.1 29.6841H117.3C118.5 29.6841 119.5 29.659 119.5 29.6089C119.5 29.5838 118.05 27.4532 116.3 24.8464L113.1 20.159L114 18.7052C114.5 17.9281 115.7 15.973 116.7 14.3938C117.7 12.8147 118.65 11.3107 118.8 11.0601C119.05 10.659 118.8 10.6089 116.95 10.6841C114.9 10.7593 114.85 10.7843 114.15 12.0126C113.75 12.6894 112.85 14.2184 112.15 15.3965L110.9 17.5271L110.25 16.6498C109.85 16.1735 108.9 14.6194 108 13.1907L106.45 10.634H104.5C103.4 10.634 102.5 10.7342 102.5 10.8595Z" fill="white"/>
<path d="M121 20.1589V29.6839H123H125V26.0494V22.4148H126.2C127.45 22.4148 127.25 22.1641 131.45 28.9319C131.75 29.4583 132.2 29.5586 134.1 29.6338L136.35 29.709L133.5 25.6232C131.1 22.2393 130.7 21.4623 131.25 21.1615C133.3 19.9583 134 18.68 134 16.2235C134 11.9623 131.75 10.6338 124.65 10.6338H121V20.1589ZM129.2 14.4438C131.75 16.424 130.15 19.1562 126.5 19.1562H125V16.5243V13.8924H126.75C128 13.8924 128.7 14.0428 129.2 14.4438Z" fill="white"/>
<path d="M138 20.159V29.6841H143.25H148.5V28.1801V26.7012L145.15 26.626L141.75 26.5508L141.6 23.969L141.45 21.4123H144.75H148V19.9084V18.4295L144.9 18.3543L141.75 18.2791L141.6 16.0733L141.45 13.8925H145H148.5V12.2632V10.634H143.25H138V20.159Z" fill="white"/>
<path d="M152 20.159V29.6841H153.5H155L155.05 22.3398C155.1 14.068 154.75 14.1683 158.75 21.0363C160 23.2421 161.65 26.0996 162.4 27.3529L163.75 29.6841H166.4H169V20.159V10.634H167.25H165.5L165.45 17.8279C165.45 21.9136 165.25 24.8213 165 24.5456C164.8 24.2698 164 22.9664 163.25 21.663C162.5 20.3595 161.5 18.6049 161 17.7778C159 14.4941 157.55 11.9875 157.2 11.3107C156.9 10.6841 156.7 10.634 154.45 10.634H152V20.159Z" fill="white"/>
<path d="M170.5 12.2632V13.8925H173.25H176V21.7883V29.6841H178H180V21.7883V13.8925H182.5H185V12.2632V10.634H177.75H170.5V12.2632Z" fill="white"/>
</g>
<defs>
<clipPath id="clip0_764_2822">
<rect width="200" height="40.1055" fill="white" transform="translate(0 0.105957)"/>
</clipPath>
</defs>
</svg>
