<svg width="200" height="39" viewBox="0 0 200 39" fill="none" xmlns="http://www.w3.org/2000/svg">
<path d="M183.838 24.4566H182.621C168.363 24.4566 166.21 17.1869 166.21 12.7877V11.8828C166.21 7.45236 168.144 0.369843 182.621 0.369843H183.838C197.941 0.369843 200 6.76595 200 9.7612V10.1668H190.796C190.609 9.5428 189.891 6.60995 183.152 6.60995C176.756 6.60995 175.383 9.44919 175.383 12.0388V12.4132C175.383 14.9093 176.943 18.1853 183.183 18.1853C190.016 18.1853 190.702 14.9093 190.827 14.3789H200V14.8781C200 17.9045 197.816 24.4566 183.838 24.4566Z" fill="#0C63AA"/>
<path d="M168.245 0.806656L156.388 18.747C153.736 22.7406 152.676 24.0198 147.528 24.0198H142.879V17.8109H146.966C147.59 17.8109 147.777 17.6237 147.777 17.2805V17.2493C147.777 16.9685 147.652 16.6253 147.372 16.2821L135.952 0.806656H146.217L153.05 10.8844L159.228 0.806656H168.245Z" fill="#0C63AA"/>
<path d="M126.342 24.0198V9.4492L111.772 24.0198H102.911V0.806656H111.772V15.4085L126.342 0.806656H135.203V24.0198H126.342Z" fill="#0C63AA"/>
<path d="M90.1732 16.7501H79.6898V24.0198H70.8288V0.806656H90.1732C98.7533 0.806656 101.187 4.20751 101.187 8.48198V8.98119C101.187 13.1933 98.6597 16.7501 90.1732 16.7501ZM79.6898 6.60995V10.9468H89.1123C91.1404 10.9468 92.0452 10.1044 92.0452 8.82519V8.73159C92.0452 7.38997 91.2028 6.60995 89.1123 6.60995H79.6898Z" fill="#0C63AA"/>
<path d="M59.0662 24.0198V9.4492L44.4956 24.0198H35.6347V0.806656H44.4956V15.4085L59.0662 0.806656H67.9272V24.0198H59.0662Z" fill="#0C63AA"/>
<path d="M17.6283 24.4566H16.4115C2.15284 24.4566 0 17.1869 0 12.7877V11.8828C0 7.45236 1.93443 0.369843 16.4115 0.369843H17.6283C31.7309 0.369843 33.7902 6.76595 33.7902 9.7612V10.1668H24.586C24.3988 9.5428 23.6812 6.60995 16.9419 6.60995C10.5458 6.60995 9.17295 9.44919 9.17295 12.0388V12.4132C9.17295 14.9093 10.733 18.1853 16.9731 18.1853C23.806 18.1853 24.4924 14.9093 24.6172 14.3789H33.7902V14.8781C33.7902 17.9045 31.6061 24.4566 17.6283 24.4566Z" fill="#0C63AA"/>
<path d="M198.775 36.344L198.622 35.6192H198.585C198.331 35.9382 198.077 36.1551 197.823 36.2697C197.572 36.3812 197.257 36.437 196.88 36.437C196.375 36.437 195.978 36.3069 195.69 36.0467C195.405 35.7865 195.263 35.4163 195.263 34.9361C195.263 33.9077 196.085 33.3687 197.73 33.3191L198.594 33.2912V32.9753C198.594 32.5757 198.507 32.2814 198.334 32.0924C198.164 31.9004 197.889 31.8043 197.511 31.8043C197.087 31.8043 196.607 31.9345 196.071 32.1947L195.834 31.6045C196.085 31.4682 196.359 31.3614 196.656 31.2839C196.957 31.2065 197.257 31.1678 197.558 31.1678C198.165 31.1678 198.614 31.3025 198.905 31.572C199.2 31.8415 199.347 32.2737 199.347 32.8684V36.344H198.775ZM197.033 35.8004C197.513 35.8004 197.889 35.6687 198.162 35.4054C198.438 35.1421 198.576 34.7735 198.576 34.2996V33.8395L197.804 33.8721C197.191 33.8938 196.748 33.9898 196.475 34.1602C196.206 34.3274 196.071 34.5892 196.071 34.9454C196.071 35.2242 196.155 35.4364 196.322 35.582C196.492 35.7276 196.729 35.8004 197.033 35.8004Z" fill="#5D5C5C"/>
<path d="M194.635 31.9112H192.981V36.3441H192.21V31.9112H190.574V31.2514H194.635V31.9112Z" fill="#5D5C5C"/>
<path d="M187.735 36.437C187.404 36.437 187.1 36.3766 186.824 36.2558C186.552 36.1318 186.323 35.9429 186.137 35.6889H186.081C186.118 35.9863 186.137 36.2681 186.137 36.5346V38.6301H185.365V31.2514H185.993L186.099 31.9484H186.137C186.335 31.6696 186.566 31.4682 186.829 31.3443C187.092 31.2204 187.394 31.1585 187.735 31.1585C188.41 31.1585 188.931 31.3893 189.296 31.8508C189.665 32.3124 189.849 32.9598 189.849 33.7931C189.849 34.6295 189.662 35.28 189.287 35.7446C188.915 36.2062 188.398 36.437 187.735 36.437ZM187.624 31.8136C187.103 31.8136 186.727 31.9577 186.494 32.2458C186.262 32.5339 186.143 32.9923 186.137 33.6212V33.7931C186.137 34.5086 186.256 35.0213 186.494 35.3311C186.733 35.6378 187.116 35.7911 187.642 35.7911C188.082 35.7911 188.426 35.613 188.674 35.2567C188.925 34.9005 189.05 34.4095 189.05 33.7838C189.05 33.1488 188.925 32.6624 188.674 32.3248C188.426 31.984 188.076 31.8136 187.624 31.8136Z" fill="#5D5C5C"/>
<path d="M184.009 33.7931C184.009 34.6233 183.799 35.2722 183.381 35.74C182.963 36.2046 182.385 36.437 181.648 36.437C181.193 36.437 180.788 36.3301 180.435 36.1164C180.082 35.9026 179.81 35.5959 179.618 35.1963C179.425 34.7967 179.329 34.329 179.329 33.7931C179.329 32.9629 179.537 32.317 179.952 31.8555C180.367 31.3908 180.943 31.1585 181.681 31.1585C182.393 31.1585 182.958 31.3955 183.377 31.8694C183.798 32.3434 184.009 32.9846 184.009 33.7931ZM180.129 33.7931C180.129 34.4436 180.259 34.9392 180.519 35.28C180.779 35.6207 181.162 35.7911 181.667 35.7911C182.172 35.7911 182.554 35.6223 182.814 35.2846C183.078 34.9439 183.209 34.4467 183.209 33.7931C183.209 33.1457 183.078 32.6547 182.814 32.3201C182.554 31.9825 182.169 31.8136 181.657 31.8136C181.152 31.8136 180.771 31.9794 180.514 32.3108C180.257 32.6423 180.129 33.1364 180.129 33.7931Z" fill="#5D5C5C"/>
<path d="M174.474 36.3441H173.702V31.2514H177.977V36.3441H177.197V31.9205H174.474V36.3441Z" fill="#5D5C5C"/>
<path d="M171.203 36.437C170.465 36.437 169.894 36.2108 169.488 35.7586C169.085 35.3032 168.884 34.6604 168.884 33.8303C168.884 32.9784 169.088 32.3201 169.497 31.8555C169.909 31.3908 170.495 31.1585 171.254 31.1585C171.498 31.1585 171.743 31.1848 171.988 31.2375C172.233 31.2901 172.425 31.3521 172.564 31.4233L172.327 32.0785C172.157 32.0103 171.971 31.9546 171.77 31.9112C171.568 31.8648 171.39 31.8415 171.235 31.8415C170.201 31.8415 169.683 32.5013 169.683 33.821C169.683 34.4467 169.809 34.9268 170.06 35.2614C170.314 35.5959 170.688 35.7632 171.184 35.7632C171.608 35.7632 172.044 35.6718 172.49 35.4891V36.1721C172.149 36.3487 171.72 36.437 171.203 36.437Z" fill="#5D5C5C"/>
<path d="M163.908 31.2514V33.3842H166.761V31.2514H167.532V36.3441H166.761V34.0486H163.908V36.3441H163.136V31.2514H163.908Z" fill="#5D5C5C"/>
<path d="M160.971 36.344L160.818 35.6192H160.78C160.526 35.9382 160.272 36.1551 160.018 36.2697C159.767 36.3812 159.453 36.437 159.075 36.437C158.57 36.437 158.174 36.3069 157.886 36.0467C157.601 35.7865 157.458 35.4163 157.458 34.9361C157.458 33.9077 158.281 33.3687 159.925 33.3191L160.79 33.2912V32.9753C160.79 32.5757 160.703 32.2814 160.529 32.0924C160.359 31.9004 160.085 31.8043 159.707 31.8043C159.283 31.8043 158.802 31.9345 158.267 32.1947L158.03 31.6045C158.281 31.4682 158.555 31.3614 158.852 31.2839C159.153 31.2065 159.453 31.1678 159.753 31.1678C160.361 31.1678 160.81 31.3025 161.101 31.572C161.395 31.8415 161.542 32.2737 161.542 32.8684V36.344H160.971ZM159.228 35.8004C159.709 35.8004 160.085 35.6687 160.358 35.4054C160.633 35.1421 160.771 34.7735 160.771 34.2996V33.8395L160 33.8721C159.386 33.8938 158.943 33.9898 158.671 34.1602C158.401 34.3274 158.267 34.5892 158.267 34.9454C158.267 35.2242 158.35 35.4364 158.518 35.582C158.688 35.7276 158.925 35.8004 159.228 35.8004Z" fill="#5D5C5C"/>
<path d="M154.373 36.437C154.041 36.437 153.738 36.3766 153.462 36.2558C153.189 36.1318 152.96 35.9429 152.774 35.6889H152.719C152.756 35.9863 152.774 36.2681 152.774 36.5346V38.6301H152.003V31.2514H152.63L152.737 31.9484H152.774C152.973 31.6696 153.203 31.4682 153.467 31.3443C153.73 31.2204 154.032 31.1585 154.373 31.1585C155.048 31.1585 155.568 31.3893 155.934 31.8508C156.303 32.3124 156.487 32.9598 156.487 33.7931C156.487 34.6295 156.3 35.28 155.925 35.7446C155.553 36.2062 155.036 36.437 154.373 36.437ZM154.261 31.8136C153.741 31.8136 153.364 31.9577 153.132 32.2458C152.9 32.5339 152.781 32.9923 152.774 33.6212V33.7931C152.774 34.5086 152.894 35.0213 153.132 35.3311C153.371 35.6378 153.753 35.7911 154.28 35.7911C154.72 35.7911 155.064 35.613 155.311 35.2567C155.562 34.9005 155.688 34.4095 155.688 33.7838C155.688 33.1488 155.562 32.6624 155.311 32.3248C155.064 31.984 154.714 31.8136 154.261 31.8136Z" fill="#5D5C5C"/>
<path d="M150.995 31.9112H149.341V36.3441H148.569V31.9112H146.934V31.2514H150.995V31.9112Z" fill="#5D5C5C"/>
<path d="M138.528 33.3563H139.917C140.565 33.3563 141.043 33.4771 141.353 33.7187C141.666 33.9573 141.822 34.3151 141.822 34.7921C141.822 35.3032 141.657 35.6904 141.325 35.9537C140.997 36.2139 140.512 36.3441 139.871 36.3441H137.757V31.2514H138.528V33.3563ZM143.449 36.3441H142.677V31.2514H143.449V36.3441ZM138.528 34.0208V35.6982H139.834C140.651 35.6982 141.06 35.4116 141.06 34.8386C141.06 34.5536 140.966 34.346 140.777 34.2159C140.588 34.0858 140.266 34.0208 139.81 34.0208H138.528Z" fill="#5D5C5C"/>
<path d="M136.734 38.1051H135.986V36.3441H132.427V38.1051H131.684V35.6796H132.083C132.498 35.1158 132.824 34.4544 133.059 33.6955C133.294 32.9366 133.417 32.1219 133.426 31.2514H136.005V35.6796H136.734V38.1051ZM135.261 35.6796V31.8601H134.118C134.078 32.5478 133.945 33.2448 133.719 33.9511C133.496 34.6543 133.217 35.2304 132.882 35.6796H135.261Z" fill="#5D5C5C"/>
<path d="M127.051 31.2514V33.3842H129.904V31.2514H130.675V36.3441H129.904V34.0486H127.051V36.3441H126.28V31.2514H127.051Z" fill="#5D5C5C"/>
<path d="M123.087 36.437C122.335 36.437 121.74 36.2077 121.303 35.7493C120.87 35.2908 120.653 34.6542 120.653 33.8395C120.653 33.0187 120.854 32.3666 121.257 31.8833C121.663 31.4001 122.206 31.1585 122.888 31.1585C123.526 31.1585 124.031 31.3691 124.402 31.7904C124.774 32.2086 124.96 32.7615 124.96 33.4492V33.9371H121.452C121.467 34.535 121.618 34.9888 121.903 35.2986C122.191 35.6083 122.595 35.7632 123.115 35.7632C123.664 35.7632 124.206 35.6486 124.742 35.4194V36.1071C124.469 36.2248 124.21 36.3084 123.966 36.358C123.724 36.4106 123.431 36.437 123.087 36.437ZM122.878 31.8043C122.469 31.8043 122.143 31.9376 121.898 32.204C121.656 32.4704 121.514 32.839 121.47 33.3098H124.133C124.133 32.8235 124.025 32.4518 123.808 32.1947C123.591 31.9345 123.281 31.8043 122.878 31.8043Z" fill="#5D5C5C"/>
<path d="M117.47 36.437C117.138 36.437 116.835 36.3766 116.559 36.2558C116.286 36.1318 116.057 35.9429 115.871 35.6889H115.816C115.853 35.9863 115.871 36.2681 115.871 36.5346V38.6301H115.1V31.2514H115.727L115.834 31.9484H115.871C116.07 31.6696 116.3 31.4682 116.564 31.3443C116.827 31.2204 117.129 31.1585 117.47 31.1585C118.145 31.1585 118.665 31.3893 119.031 31.8508C119.4 32.3124 119.584 32.9598 119.584 33.7931C119.584 34.6295 119.397 35.28 119.022 35.7446C118.65 36.2062 118.133 36.437 117.47 36.437ZM117.358 31.8136C116.838 31.8136 116.461 31.9577 116.229 32.2458C115.997 32.5339 115.878 32.9923 115.871 33.6212V33.7931C115.871 34.5086 115.991 35.0213 116.229 35.3311C116.468 35.6378 116.85 35.7911 117.377 35.7911C117.817 35.7911 118.161 35.613 118.408 35.2567C118.659 34.9005 118.785 34.4095 118.785 33.7838C118.785 33.1488 118.659 32.6624 118.408 32.3248C118.161 31.984 117.811 31.8136 117.358 31.8136Z" fill="#5D5C5C"/>
<path d="M112.935 36.344L112.781 35.6192H112.744C112.49 35.9382 112.236 36.1551 111.982 36.2697C111.731 36.3812 111.417 36.437 111.039 36.437C110.534 36.437 110.137 36.3069 109.849 36.0467C109.564 35.7865 109.422 35.4163 109.422 34.9361C109.422 33.9077 110.244 33.3687 111.889 33.3191L112.754 33.2912V32.9753C112.754 32.5757 112.667 32.2814 112.493 32.0924C112.323 31.9004 112.049 31.8043 111.671 31.8043C111.246 31.8043 110.766 31.9345 110.23 32.1947L109.993 31.6045C110.244 31.4682 110.519 31.3614 110.816 31.2839C111.116 31.2065 111.417 31.1678 111.717 31.1678C112.324 31.1678 112.774 31.3025 113.065 31.572C113.359 31.8415 113.506 32.2737 113.506 32.8684V36.344H112.935ZM111.192 35.8004C111.672 35.8004 112.049 35.6687 112.321 35.4054C112.597 35.1421 112.735 34.7735 112.735 34.2996V33.8395L111.964 33.8721C111.35 33.8938 110.907 33.9898 110.635 34.1602C110.365 34.3274 110.23 34.5892 110.23 34.9454C110.23 35.2242 110.314 35.4364 110.481 35.582C110.652 35.7276 110.889 35.8004 111.192 35.8004Z" fill="#5D5C5C"/>
<path d="M105.166 36.344L105.012 35.6192H104.975C104.721 35.9382 104.467 36.1551 104.213 36.2697C103.962 36.3812 103.648 36.437 103.27 36.437C102.765 36.437 102.368 36.3069 102.08 36.0467C101.795 35.7865 101.653 35.4163 101.653 34.9361C101.653 33.9077 102.475 33.3687 104.12 33.3191L104.984 33.2912V32.9753C104.984 32.5757 104.898 32.2814 104.724 32.0924C104.554 31.9004 104.28 31.8043 103.902 31.8043C103.477 31.8043 102.997 31.9345 102.461 32.1947L102.224 31.6045C102.475 31.4682 102.749 31.3614 103.047 31.2839C103.347 31.2065 103.648 31.1678 103.948 31.1678C104.555 31.1678 105.005 31.3025 105.296 31.572C105.59 31.8415 105.737 32.2737 105.737 32.8684V36.344H105.166ZM103.423 35.8004C103.903 35.8004 104.28 35.6687 104.552 35.4054C104.828 35.1421 104.966 34.7735 104.966 34.2996V33.8395L104.195 33.8721C103.581 33.8938 103.138 33.9898 102.866 34.1602C102.596 34.3274 102.461 34.5892 102.461 34.9454C102.461 35.2242 102.545 35.4364 102.712 35.582C102.883 35.7276 103.12 35.8004 103.423 35.8004Z" fill="#5D5C5C"/>
<path d="M97.6801 35.6006L97.8241 35.1685L98.0239 34.6202L99.4039 31.2607H100.384V36.3441H99.7013V32.1389L99.6084 32.4084L99.3389 33.1193L98.0239 36.3441H97.378L96.0631 33.11C95.8989 32.695 95.7858 32.3712 95.7239 32.1389V36.3441H95.0362V31.2607H95.9794L97.313 34.4901C97.4462 34.8308 97.5685 35.201 97.6801 35.6006Z" fill="#5D5C5C"/>
<path d="M91.5698 36.437C91.2384 36.437 90.9348 36.3766 90.6591 36.2558C90.3865 36.1318 90.1573 35.9429 89.9714 35.6889H89.9157C89.9528 35.9863 89.9714 36.2681 89.9714 36.5346V38.6301H89.2001V31.2514H89.8274L89.9342 31.9484H89.9714C90.1697 31.6696 90.4005 31.4682 90.6638 31.3443C90.9271 31.2204 91.2291 31.1585 91.5698 31.1585C92.2451 31.1585 92.7656 31.3893 93.1311 31.8508C93.4997 32.3124 93.684 32.9598 93.684 33.7931C93.684 34.6295 93.4966 35.28 93.1218 35.7446C92.7501 36.2062 92.2327 36.437 91.5698 36.437ZM91.4583 31.8136C90.9379 31.8136 90.5615 31.9577 90.3292 32.2458C90.0969 32.5339 89.9776 32.9923 89.9714 33.6212V33.7931C89.9714 34.5086 90.0907 35.0213 90.3292 35.3311C90.5677 35.6378 90.9503 35.7911 91.4769 35.7911C91.9168 35.7911 92.2606 35.613 92.5084 35.2567C92.7594 34.9005 92.8848 34.4095 92.8848 33.7838C92.8848 33.1488 92.7594 32.6624 92.5084 32.3248C92.2606 31.984 91.9106 31.8136 91.4583 31.8136Z" fill="#5D5C5C"/>
<path d="M87.8433 33.7931C87.8433 34.6233 87.6342 35.2722 87.216 35.74C86.7978 36.2046 86.2201 36.437 85.4828 36.437C85.0275 36.437 84.6232 36.3301 84.2701 36.1164C83.9169 35.9026 83.6443 35.5959 83.4523 35.1963C83.2602 34.7967 83.1642 34.329 83.1642 33.7931C83.1642 32.9629 83.3717 32.317 83.7868 31.8555C84.2019 31.3908 84.7781 31.1585 85.5154 31.1585C86.2278 31.1585 86.7932 31.3955 87.2114 31.8694C87.6326 32.3434 87.8433 32.9846 87.8433 33.7931ZM83.9634 33.7931C83.9634 34.4436 84.0935 34.9392 84.3537 35.28C84.6139 35.6207 84.9965 35.7911 85.5014 35.7911C86.0063 35.7911 86.3889 35.6223 86.6491 35.2846C86.9124 34.9439 87.0441 34.4467 87.0441 33.7931C87.0441 33.1457 86.9124 32.6547 86.6491 32.3201C86.3889 31.9825 86.0032 31.8136 85.4921 31.8136C84.9872 31.8136 84.6062 31.9794 84.3491 32.3108C84.092 32.6423 83.9634 33.1364 83.9634 33.7931Z" fill="#5D5C5C"/>
<path d="M82.1001 33.7931C82.1001 34.5644 81.8802 35.1793 81.4403 35.6378C81.0035 36.0931 80.3918 36.3533 79.6049 36.4184V38.6302H78.8429V36.4184C78.0747 36.3595 77.4675 36.0962 77.0214 35.6285C76.5754 35.1607 76.3523 34.5489 76.3523 33.7931C76.3523 33.0218 76.5738 32.4084 77.0168 31.953C77.4629 31.4977 78.0809 31.239 78.8708 31.1771V29.114H79.6049V31.1771C80.3825 31.2483 80.9927 31.5163 81.4357 31.9809C81.8787 32.4456 82.1001 33.0496 82.1001 33.7931ZM77.1608 33.7931C77.1608 34.3878 77.2971 34.8541 77.5697 35.1917C77.8423 35.5294 78.276 35.7261 78.8708 35.7818V31.8229C78.2977 31.8756 77.8687 32.063 77.5837 32.3852C77.3018 32.7042 77.1608 33.1735 77.1608 33.7931ZM81.3009 33.7931C81.3009 32.6067 80.7356 31.953 79.6049 31.8322V35.7818C80.1935 35.723 80.6225 35.5247 80.892 35.1871C81.1646 34.8494 81.3009 34.3847 81.3009 33.7931Z" fill="#5D5C5C"/>
<path d="M75.6368 31.9112H73.9826V36.3441H73.2113V31.9112H71.5757V31.2514H75.6368V31.9112Z" fill="#5D5C5C"/>
<path d="M70.0377 36.344L69.8843 35.6192H69.8472C69.5931 35.9382 69.3391 36.1551 69.0851 36.2697C68.8342 36.3812 68.5198 36.437 68.1419 36.437C67.6369 36.437 67.2404 36.3069 66.9523 36.0467C66.6674 35.7865 66.5249 35.4163 66.5249 34.9361C66.5249 33.9077 67.3473 33.3687 68.9922 33.3191L69.8564 33.2912V32.9753C69.8564 32.5757 69.7697 32.2814 69.5962 32.0924C69.4259 31.9004 69.1517 31.8043 68.7738 31.8043C68.3494 31.8043 67.8693 31.9345 67.3334 32.1947L67.0964 31.6045C67.3473 31.4682 67.6215 31.3614 67.9188 31.2839C68.2193 31.2065 68.5198 31.1678 68.8203 31.1678C69.4274 31.1678 69.8766 31.3025 70.1678 31.572C70.4621 31.8415 70.6092 32.2737 70.6092 32.8684V36.344H70.0377ZM68.2952 35.8004C68.7753 35.8004 69.1517 35.6687 69.4243 35.4054C69.7 35.1421 69.8379 34.7735 69.8379 34.2996V33.8395L69.0665 33.8721C68.4532 33.8938 68.0102 33.9898 67.7376 34.1602C67.4681 34.3274 67.3334 34.5892 67.3334 34.9454C67.3334 35.2242 67.417 35.4364 67.5843 35.582C67.7547 35.7276 67.9916 35.8004 68.2952 35.8004Z" fill="#5D5C5C"/>
<path d="M65.2656 36.3441H64.485V31.9112H62.9563C62.8727 33.014 62.7565 33.8891 62.6078 34.5365C62.4591 35.184 62.2655 35.6579 62.027 35.9584C61.7916 36.2589 61.4911 36.4091 61.1256 36.4091C60.9583 36.4091 60.8251 36.3905 60.726 36.3533V35.7818C60.7941 35.8004 60.8715 35.8097 60.9583 35.8097C61.3145 35.8097 61.598 35.4333 61.8086 34.6806C62.0192 33.9278 62.1788 32.7848 62.2872 31.2514H65.2656V36.3441Z" fill="#5D5C5C"/>
<path d="M56.3303 36.3441H55.559V31.2514H59.8338V36.3441H59.0532V31.9205H56.3303V36.3441Z" fill="#5D5C5C"/>
<path d="M48.0548 36.3441H47.1533L48.617 34.1927C48.2236 34.106 47.9216 33.9387 47.7109 33.6909C47.5034 33.4399 47.3996 33.1255 47.3996 32.7476C47.3996 32.283 47.556 31.9174 47.8689 31.651C48.1818 31.3846 48.6186 31.2514 49.1792 31.2514H51.4468V36.3441H50.6754V34.3089H49.3883L48.0548 36.3441ZM48.1524 32.7569C48.1524 33.3455 48.5798 33.6398 49.4348 33.6398H50.6754V31.9205H49.2768C48.5272 31.9205 48.1524 32.1993 48.1524 32.7569Z" fill="#5D5C5C"/>
<path d="M45.6339 36.344L45.4806 35.6192H45.4434C45.1894 35.9382 44.9354 36.1551 44.6814 36.2697C44.4305 36.3812 44.116 36.437 43.7381 36.437C43.2332 36.437 42.8367 36.3069 42.5486 36.0467C42.2636 35.7865 42.1211 35.4163 42.1211 34.9361C42.1211 33.9077 42.9436 33.3687 44.5884 33.3191L45.4527 33.2912V32.9753C45.4527 32.5757 45.366 32.2814 45.1925 32.0924C45.0221 31.9004 44.748 31.8043 44.3701 31.8043C43.9457 31.8043 43.4655 31.9345 42.9296 32.1947L42.6926 31.6045C42.9436 31.4682 43.2177 31.3614 43.5151 31.2839C43.8156 31.2065 44.116 31.1678 44.4165 31.1678C45.0237 31.1678 45.4728 31.3025 45.764 31.572C46.0583 31.8415 46.2054 32.2737 46.2054 32.8684V36.344H45.6339ZM43.8915 35.8004C44.3716 35.8004 44.748 35.6687 45.0206 35.4054C45.2963 35.1421 45.4341 34.7735 45.4341 34.2996V33.8395L44.6628 33.8721C44.0494 33.8938 43.6065 33.9898 43.3339 34.1602C43.0644 34.3274 42.9296 34.5892 42.9296 34.9454C42.9296 35.2242 43.0133 35.4364 43.1805 35.582C43.3509 35.7276 43.5879 35.8004 43.8915 35.8004Z" fill="#5D5C5C"/>
<path d="M41.215 32.5292C41.215 32.8607 41.119 33.1131 40.927 33.2866C40.738 33.457 40.4716 33.5716 40.1277 33.6305V33.6723C40.5614 33.7311 40.8774 33.8581 41.0756 34.0533C41.277 34.2485 41.3777 34.518 41.3777 34.8618C41.3777 35.3357 41.2026 35.7013 40.8526 35.9584C40.5057 36.2155 39.9976 36.3441 39.3285 36.3441H37.0842V31.2514H39.3192C40.5831 31.2514 41.215 31.6774 41.215 32.5292ZM40.6063 34.8107C40.6063 34.535 40.501 34.3352 40.2904 34.2113C40.0828 34.0843 39.7374 34.0208 39.2542 34.0208H37.8556V35.6982H39.2728C40.1618 35.6982 40.6063 35.4023 40.6063 34.8107ZM40.4623 32.6036C40.4623 32.3558 40.3663 32.1807 40.1742 32.0785C39.9852 31.9732 39.6972 31.9205 39.3099 31.9205H37.8556V33.3563H39.1613C39.6383 33.3563 39.9744 33.2975 40.1696 33.1797C40.3647 33.062 40.4623 32.87 40.4623 32.6036Z" fill="#5D5C5C"/>
<path d="M33.8921 36.437C33.1393 36.437 32.5446 36.2077 32.1078 35.7493C31.6741 35.2908 31.4573 34.6542 31.4573 33.8395C31.4573 33.0187 31.6586 32.3666 32.0613 31.8833C32.4671 31.4001 33.0108 31.1585 33.6923 31.1585C34.3304 31.1585 34.8353 31.3691 35.207 31.7904C35.5788 32.2086 35.7646 32.7615 35.7646 33.4492V33.9371H32.2565C32.272 34.535 32.4222 34.9888 32.7072 35.2986C32.9953 35.6083 33.3995 35.7632 33.9199 35.7632C34.4682 35.7632 35.0103 35.6486 35.5462 35.4194V36.1071C35.2736 36.2248 35.015 36.3084 34.7703 36.358C34.5286 36.4106 34.2359 36.437 33.8921 36.437ZM33.683 31.8043C33.2741 31.8043 32.9473 31.9376 32.7025 32.204C32.4609 32.4704 32.3184 32.839 32.2751 33.3098H34.9375C34.9375 32.8235 34.8291 32.4518 34.6123 32.1947C34.3954 31.9345 34.0857 31.8043 33.683 31.8043Z" fill="#5D5C5C"/>
<path d="M30.1005 36.3441H29.3198V31.9112H27.7911C27.7075 33.014 27.5913 33.8891 27.4426 34.5365C27.2939 35.184 27.1003 35.6579 26.8618 35.9584C26.6264 36.2589 26.3259 36.4091 25.9604 36.4091C25.7931 36.4091 25.6599 36.3905 25.5608 36.3533V35.7818C25.6289 35.8004 25.7064 35.8097 25.7931 35.8097C26.1493 35.8097 26.4328 35.4333 26.6434 34.6806C26.8541 33.9278 27.0136 32.7848 27.122 31.2514H30.1005V36.3441Z" fill="#5D5C5C"/>
<path d="M23.8044 36.437C23.0671 36.437 22.4956 36.2108 22.0898 35.7586C21.6871 35.3032 21.4857 34.6604 21.4857 33.8303C21.4857 32.9784 21.6902 32.3201 22.0991 31.8555C22.5111 31.3908 23.0965 31.1585 23.8555 31.1585C24.1002 31.1585 24.3449 31.1848 24.5896 31.2375C24.8344 31.2901 25.0264 31.3521 25.1658 31.4233L24.9288 32.0785C24.7585 32.0103 24.5726 31.9546 24.3712 31.9112C24.1699 31.8648 23.9918 31.8415 23.8369 31.8415C22.8023 31.8415 22.2849 32.5013 22.2849 33.821C22.2849 34.4467 22.4104 34.9268 22.6613 35.2614C22.9153 35.5959 23.2901 35.7632 23.7858 35.7632C24.2102 35.7632 24.6454 35.6718 25.0915 35.4891V36.1721C24.7507 36.3487 24.3217 36.437 23.8044 36.437Z" fill="#5D5C5C"/>
<path d="M19.6039 36.344L19.4505 35.6192H19.4134C19.1594 35.9382 18.9053 36.1551 18.6513 36.2697C18.4004 36.3812 18.086 36.437 17.7081 36.437C17.2032 36.437 16.8067 36.3069 16.5186 36.0467C16.2336 35.7865 16.0911 35.4163 16.0911 34.9361C16.0911 33.9077 16.9135 33.3687 18.5584 33.3191L19.4227 33.2912V32.9753C19.4227 32.5757 19.3359 32.2814 19.1625 32.0924C18.9921 31.9004 18.7179 31.8043 18.34 31.8043C17.9156 31.8043 17.4355 31.9345 16.8996 32.1947L16.6626 31.6045C16.9135 31.4682 17.1877 31.3614 17.485 31.2839C17.7855 31.2065 18.086 31.1678 18.3865 31.1678C18.9936 31.1678 19.4428 31.3025 19.734 31.572C20.0283 31.8415 20.1754 32.2737 20.1754 32.8684V36.344H19.6039ZM17.8614 35.8004C18.3416 35.8004 18.7179 35.6687 18.9905 35.4054C19.2662 35.1421 19.4041 34.7735 19.4041 34.2996V33.8395L18.6327 33.8721C18.0194 33.8938 17.5764 33.9898 17.3038 34.1602C17.0343 34.3274 16.8996 34.5892 16.8996 34.9454C16.8996 35.2242 16.9832 35.4364 17.1505 35.582C17.3209 35.7276 17.5578 35.8004 17.8614 35.8004Z" fill="#5D5C5C"/>
<path d="M13.0058 36.437C12.6743 36.437 12.3707 36.3766 12.095 36.2558C11.8224 36.1318 11.5932 35.9429 11.4073 35.6889H11.3516C11.3888 35.9863 11.4073 36.2681 11.4073 36.5346V38.6301H10.636V31.2514H11.2633L11.3702 31.9484H11.4073C11.6056 31.6696 11.8364 31.4682 12.0997 31.3443C12.363 31.2204 12.665 31.1585 13.0058 31.1585C13.6811 31.1585 14.2015 31.3893 14.567 31.8508C14.9356 32.3124 15.1199 32.9598 15.1199 33.7931C15.1199 34.6295 14.9325 35.28 14.5577 35.7446C14.186 36.2062 13.6687 36.437 13.0058 36.437ZM12.8942 31.8136C12.3738 31.8136 11.9975 31.9577 11.7651 32.2458C11.5328 32.5339 11.4135 32.9923 11.4073 33.6212V33.7931C11.4073 34.5086 11.5266 35.0213 11.7651 35.3311C12.0037 35.6378 12.3862 35.7911 12.9128 35.7911C13.3527 35.7911 13.6966 35.613 13.9444 35.2567C14.1953 34.9005 14.3207 34.4095 14.3207 33.7838C14.3207 33.1488 14.1953 32.6624 13.9444 32.3248C13.6966 31.984 13.3465 31.8136 12.8942 31.8136Z" fill="#5D5C5C"/>
<path d="M9.6277 31.9112H7.97352V36.3441H7.20219V31.9112H5.5666V31.2514H9.6277V31.9112Z" fill="#5D5C5C"/>
<path d="M4.83711 33.7931C4.83711 34.6233 4.62801 35.2722 4.20982 35.74C3.79163 36.2046 3.21391 36.437 2.47665 36.437C2.02129 36.437 1.61704 36.3301 1.2639 36.1164C0.910763 35.9026 0.638165 35.5959 0.446107 35.1963C0.254049 34.7967 0.15802 34.329 0.15802 33.7931C0.15802 32.9629 0.365566 32.317 0.780659 31.8555C1.19575 31.3908 1.77193 31.1585 2.50918 31.1585C3.22165 31.1585 3.78699 31.3955 4.20518 31.8694C4.62646 32.3434 4.83711 32.9846 4.83711 33.7931ZM0.957229 33.7931C0.957229 34.4436 1.08733 34.9392 1.34754 35.28C1.60775 35.6207 1.99031 35.7911 2.49524 35.7911C3.00017 35.7911 3.38273 35.6223 3.64294 35.2846C3.90625 34.9439 4.0379 34.4467 4.0379 33.7931C4.0379 33.1457 3.90625 32.6547 3.64294 32.3201C3.38273 31.9825 2.99707 31.8136 2.48595 31.8136C1.98102 31.8136 1.6 31.9794 1.34289 32.3108C1.08578 32.6423 0.957229 33.1364 0.957229 33.7931Z" fill="#5D5C5C"/>
</svg>
