<svg width="398" height="43" viewBox="0 0 398 43" fill="none" xmlns="http://www.w3.org/2000/svg">
<g clip-path="url(#clip0_2615_991)">
<mask id="mask0_2615_991" style="mask-type:luminance" maskUnits="userSpaceOnUse" x="15" y="6" width="138" height="30">
<path d="M152.626 6.74011H15.4977V35.9163H152.626V6.74011Z" fill="white"/>
</mask>
<g mask="url(#mask0_2615_991)">
<path d="M51.4715 7.77536H49.6591V14.7741H51.4715V7.77536Z" fill="#5EC5EE"/>
<path d="M51.4715 14.7741H49.6591V21.7729H51.4715V14.7741Z" fill="#2588C3"/>
<path d="M51.4715 21.7729H49.6591V28.7717H51.4715V21.7729Z" fill="#045D89"/>
<path d="M51.4715 28.7713H49.6591V35.7701H51.4715V28.7713Z" fill="#E3EBF1"/>
<path d="M31.664 20.8872C31.6572 20.8804 31.4943 20.7107 31.2126 20.7107C31.0633 20.7107 30.9105 20.7582 30.7578 20.8465C30.7306 20.86 30.7136 20.8906 30.7204 20.9211C30.7204 20.9279 30.8325 21.6882 30.7476 22.0141C30.6831 22.2584 30.4761 22.5469 30.0993 22.5469C30.0178 22.5469 29.9364 22.5333 29.8481 22.5096H29.8448L30.1299 22.3161C30.1502 22.3025 30.1638 22.2788 30.1638 22.2516C30.1638 22.2244 30.1502 22.2041 30.1299 22.1871L29.563 21.7968C29.7429 21.661 29.8549 21.566 29.8685 21.5524C29.8855 21.5389 29.8957 21.5185 29.8957 21.4981C29.8957 21.4778 29.8889 21.4574 29.8719 21.4404L29.7701 21.3386C29.7565 21.325 29.7362 21.3149 29.7158 21.3149C29.6988 21.3149 29.6818 21.3216 29.6683 21.3318C29.6615 21.3352 29.5121 21.4506 29.2847 21.6067L29.0573 21.4506L29.9466 20.8397L30.0144 21.0162C30.0246 21.0433 30.0518 21.0636 30.0823 21.0636C30.0823 21.0636 30.0823 21.0636 30.0857 21.0636C30.1129 21.0636 30.1401 21.0467 30.1536 21.0229L30.5779 20.2423C30.5915 20.2151 30.5881 20.1846 30.5745 20.1608C30.5609 20.1404 30.5372 20.1269 30.51 20.1269C30.5066 20.1269 30.5032 20.1269 30.4998 20.1269L29.6241 20.2593C29.5936 20.2626 29.5698 20.283 29.5596 20.3136C29.5528 20.3407 29.5596 20.3712 29.5834 20.3916L29.7259 20.5172L28.7145 21.213L27.7064 20.5172L27.849 20.3916C27.8693 20.3712 27.8796 20.3407 27.8694 20.3136C27.8625 20.283 27.8388 20.2626 27.8083 20.2593L26.9325 20.1269C26.9291 20.1269 26.9257 20.1269 26.9224 20.1269C26.8952 20.1269 26.8715 20.137 26.8579 20.1608C26.8409 20.1846 26.8409 20.2151 26.8545 20.2423L27.2754 21.0229C27.2889 21.0467 27.3161 21.0636 27.3433 21.0636C27.3467 21.0636 27.3467 21.0636 27.3467 21.0636C27.3772 21.0636 27.4009 21.0433 27.4146 21.0162L27.4858 20.8397L28.3751 21.4506L28.1477 21.6067C27.9203 21.4506 27.7709 21.3352 27.7675 21.3318C27.7539 21.3216 27.737 21.3149 27.72 21.3149C27.6996 21.3149 27.6793 21.3216 27.6657 21.3386L27.5639 21.4404C27.5503 21.454 27.5401 21.4744 27.5401 21.4981C27.5401 21.5185 27.5503 21.5389 27.5673 21.5524C27.5843 21.566 27.6962 21.661 27.8762 21.7968L27.3093 22.1871C27.2889 22.2007 27.2754 22.2244 27.2754 22.2516C27.2754 22.2788 27.2889 22.2991 27.3093 22.3161L27.5944 22.5096C27.5944 22.5096 27.5944 22.5096 27.591 22.5096C27.5028 22.5333 27.4213 22.5469 27.3399 22.5469C26.9631 22.5469 26.7527 22.2584 26.6882 22.0141C26.6033 21.6882 26.7154 20.9279 26.7154 20.9211C26.7187 20.8906 26.7051 20.86 26.678 20.8465C26.5219 20.7582 26.3691 20.7107 26.2232 20.7107C25.9381 20.7107 25.7751 20.877 25.7683 20.8872C25.7548 20.8973 25.748 20.9178 25.748 20.9313C25.7446 20.9788 25.6564 22.0751 26.1655 22.6318C26.3522 22.8354 26.5999 22.9407 26.8952 22.9407C26.9462 22.9407 27.0038 22.9407 27.0581 22.9305C27.3467 22.8965 27.6283 22.8184 27.9033 22.7234L28.3751 23.0425L27.3331 23.7484C27.3127 23.7654 27.2991 23.7858 27.2991 23.8129C27.2991 23.8367 27.3093 23.8605 27.3331 23.8774L28.3785 24.6004L27.4858 25.2181L27.4179 25.045C27.4078 25.0178 27.3806 25.0009 27.3501 24.9975C27.3501 24.9975 27.3501 24.9975 27.3467 24.9975C27.3195 24.9975 27.2923 25.0144 27.2788 25.0383L26.8579 25.8189C26.8443 25.8426 26.8477 25.8766 26.8613 25.897C26.8749 25.9173 26.8986 25.9309 26.9258 25.9309C26.9291 25.9309 26.9325 25.9309 26.9359 25.9309L27.8117 25.8019C27.8422 25.7986 27.8659 25.7748 27.8728 25.7476C27.8829 25.717 27.8728 25.6865 27.8524 25.6662L27.7064 25.5372L28.7179 24.838L29.7293 25.5372L29.5834 25.6662C29.5596 25.6865 29.5528 25.717 29.5596 25.7476C29.5664 25.7748 29.5936 25.7951 29.6241 25.8019L30.4998 25.9309C30.5032 25.9309 30.5066 25.9309 30.51 25.9309C30.5338 25.9309 30.5575 25.9207 30.5745 25.897C30.5915 25.8732 30.5915 25.8426 30.5779 25.8189L30.1536 25.0383C30.1401 25.0144 30.1162 24.9975 30.0857 24.9975H30.0823C30.0484 24.9975 30.0246 25.0178 30.0144 25.045L29.9466 25.2181L29.0539 24.6004L30.0993 23.8774C30.1197 23.8639 30.1333 23.8401 30.1333 23.8129C30.1333 23.7858 30.1197 23.7654 30.0993 23.7484L29.0573 23.0425L29.5291 22.7234C29.8006 22.8218 30.0823 22.8965 30.3709 22.9305C30.4286 22.9373 30.4828 22.9407 30.5338 22.9407C30.8325 22.9407 31.0768 22.8354 31.2635 22.6318C31.7726 22.0751 31.6844 20.9788 31.681 20.9313C31.681 20.9178 31.6742 20.9007 31.664 20.8872ZM28.7111 21.695L28.9351 21.8478C28.8638 21.8918 28.7891 21.9394 28.7111 21.9869C28.633 21.9394 28.5583 21.8952 28.4871 21.8478L28.7111 21.695ZM27.8965 22.255L28.2054 22.0412C28.2665 22.0786 28.3275 22.1193 28.3954 22.1634C28.2733 22.2278 28.1511 22.2889 28.0289 22.3467L27.8965 22.255ZM29.5088 23.8129L28.7111 24.3628L27.9169 23.8129L28.7111 23.2733L29.5088 23.8129ZM28.7111 22.8083L28.3275 22.5469C28.4633 22.4824 28.5889 22.4179 28.7111 22.3501C28.8333 22.4179 28.9623 22.4824 29.098 22.5469L28.7111 22.8083ZM29.3967 22.3467C29.2746 22.2923 29.1489 22.2312 29.0267 22.1634C29.0946 22.1226 29.1557 22.0819 29.2168 22.0412L29.5291 22.255L29.3967 22.3467Z" fill="#31303D"/>
<path d="M31.9323 21.5318C31.9628 21.4707 31.9764 21.3553 31.9764 21.3553L31.9323 21.3417V21.5318Z" fill="#31303D"/>
<path d="M41.9614 18.8131C41.6356 18.6163 41.0959 18.5484 40.546 18.5993C41.4048 18.3006 41.9919 17.6625 42.0225 17.0923C41.5745 16.9634 41.1095 17.0312 40.7056 17.1229C41.123 16.8106 41.8087 16.2404 41.7238 15.402C41.3199 15.3036 40.58 15.5853 40.2712 15.7245C41.2622 15.1678 41.6186 13.8509 41.0925 13.1042C40.7802 13.2874 39.3649 14.7334 39.1341 14.8997C39.8673 14.0613 40.2101 13.4605 40.4069 12.8971C40.6411 12.2828 40.6581 11.2102 39.8978 10.8504C39.538 11.6718 38.2822 13.7796 37.583 14.6553C37.505 14.5874 37.4439 14.4958 37.3454 14.4788C37.1791 15.0117 36.6835 15.7211 36.2322 16.0605C36.2084 16.0163 36.1643 15.8942 36.0862 15.7618C35.6077 16.4779 34.3654 17.4589 33.9649 18.063C33.6526 18.5111 33.6526 18.915 34.0871 19.3324C34.2636 19.5089 34.5962 19.8178 34.3077 20.2523C33.914 20.8259 33.1232 20.8937 32.6955 20.5544C32.6955 20.4525 32.6921 20.3541 32.6887 20.2624C33.1944 20.0656 33.3132 19.3766 32.9399 18.9489C32.8584 19.105 32.7227 19.2205 32.5598 19.2781C32.5156 19.0982 32.4783 19.0134 32.4749 19.0032L32.4545 18.9625H32.4104C32.407 18.9625 32.2407 18.9523 31.9929 18.9252C32.2747 18.8335 32.4545 18.5721 32.4138 18.2226C31.9794 18.5959 31.5449 18.2395 31.4465 18.1411C31.175 17.8221 31.0969 17.4623 31.2055 16.9124C31.2972 16.4339 31.7927 15.6735 32.1185 15.4292C32.1661 15.4733 32.2407 15.565 32.4002 15.5513C32.4919 15.5208 32.6446 15.4427 32.76 15.3986C33.0892 15.3002 33.4083 15.3749 33.6119 15.5072C33.9852 15.7347 33.9513 15.9858 33.9412 16.1691C34.508 15.85 34.3111 15.3171 33.5678 15.1203C34.0769 15.1203 34.4944 15.5853 34.603 15.643C34.8847 15.85 35.2886 15.8025 35.5228 15.6905C35.9742 15.4767 36.0659 14.9438 35.9437 14.8352C35.8996 15.0253 35.7536 15.195 35.4922 15.2255C35.1054 15.2697 34.732 15.1034 34.4367 14.971C34.1855 14.8657 33.7816 14.7876 33.5067 14.8047C34.0158 14.5229 34.8067 14.5534 35.0883 14.9879C35.258 14.8521 35.3633 14.73 35.4108 14.4482C35.5567 13.6879 34.9628 13.2976 34.3281 13.2976C34.3451 13.1144 34.216 13.0227 34.0464 13.0838C34.0464 13.0057 34.026 12.9446 33.9819 12.9141C33.9955 12.9141 34.0158 12.9073 34.0294 12.9073C34.6675 12.8632 35.2717 12.6663 35.5975 12.3235C36.1677 11.7126 35.258 10.9387 35.5839 10.3379C35.8962 10.4737 36.1269 10.6502 36.558 10.7113C36.6021 10.8029 36.6429 10.9862 36.6564 11.0846C36.7956 11.7635 36.1269 11.8755 36.3001 12.5984C36.3747 12.9277 36.6225 13.0397 36.704 13.43C36.704 13.43 36.7345 13.7015 36.4969 13.9392C37.0467 13.9527 37.3353 13.4877 37.1656 13.0566C37.0909 12.8802 36.9008 12.7138 36.9008 12.5068C37.1825 12.8802 37.4337 12.8666 37.8681 12.7274C38.065 12.6663 38.0819 12.9412 37.9598 13.1619C38.2584 12.9854 38.3331 12.6969 38.3331 12.5679C38.3331 12.2624 38.0955 12.1199 37.8681 12.1809C37.7392 12.1945 37.4812 12.371 37.4642 12.1199C37.4099 11.6854 38.0955 11.7024 37.9563 11.0032C37.8817 10.6536 37.4914 10.4601 36.8838 10.3854C36.8227 10.3243 36.67 10.1784 36.5885 10.0562C36.2559 9.50296 35.9097 9.35701 35.7027 9.46901C35.4583 9.59121 35.3327 9.69643 35.1325 9.80504C34.973 9.88989 34.8033 9.93402 34.698 10.0562C34.4333 10.3854 34.6844 10.8946 34.8202 11.2068C34.9119 11.3901 35.1325 11.8076 35.0341 12.1199C34.9254 12.4932 34.3111 12.7274 33.9378 12.8055C33.914 12.8055 33.897 12.8123 33.8733 12.8123V12.6663C33.9819 12.4762 34.0735 12.2488 34.1482 12.0418C34.3994 11.3697 34.026 11.0982 33.4728 10.9692C33.4015 10.9251 33.3268 10.9081 33.2352 10.9387H33.2182L33.2047 11.0507L33.13 11.0269L33.1469 10.8912H33.113C33.1775 10.847 33.2047 10.769 33.2047 10.6943C33.2047 10.6128 33.1741 10.5484 33.1435 10.5042H33.2182L33.1876 10.4737C33.1741 10.4431 33.1436 10.4126 33.096 10.3651C33.0824 10.3515 33.0655 10.3209 33.0655 10.304C33.0791 10.3176 33.096 10.3345 33.1266 10.3481C33.1571 10.3787 33.2013 10.4092 33.2182 10.4397L33.2623 10.4703V9.85595L33.2182 9.89329C33.2047 9.90686 33.1571 9.93741 33.1266 9.97135C33.096 10.0019 33.0824 10.0019 33.0655 10.0155C33.0655 10.0019 33.0791 9.98493 33.096 9.95438C33.1436 9.92383 33.1741 9.87971 33.1876 9.85595L33.2182 9.80843H32.5937L32.6242 9.85595C32.6548 9.87632 32.6921 9.92383 32.7227 9.95438C32.7363 9.98493 32.7532 10.0019 32.7668 10.0155C32.7498 10.0019 32.7227 10.0019 32.7057 9.97135C32.6514 9.9408 32.6242 9.91026 32.5937 9.89329L32.57 9.85595V10.4805L32.6005 10.4499C32.631 10.4194 32.6616 10.3888 32.7125 10.3583C32.7295 10.3447 32.7566 10.3277 32.7736 10.3142C32.7566 10.3277 32.743 10.3583 32.7295 10.3753C32.6989 10.4228 32.6582 10.4499 32.631 10.4839L32.6005 10.5144H32.6989C32.6446 10.5585 32.631 10.623 32.631 10.7045C32.631 10.7792 32.6616 10.8572 32.7125 10.9014H32.6989L32.7125 11.0371L32.631 11.0609L32.614 10.9489H32.6005C32.5089 10.9183 32.4342 10.9353 32.3731 10.9794C31.8097 11.1084 31.4363 11.3833 31.6875 12.052C31.7655 12.259 31.8572 12.4864 31.9692 12.6765V12.7749C31.4058 12.5916 30.3909 11.9739 30.1194 11.6006C30.0888 11.5632 30.0651 11.5327 30.0515 11.5089H30.0481L30.0583 11.105C30.2551 10.7758 30.4317 10.3719 30.5674 10.0019C30.9238 9.03456 30.3977 8.63066 29.5628 8.46435C29.4779 8.40325 29.3727 8.3727 29.2336 8.42022L29.203 8.57296L29.0265 8.55938L29.0401 8.36252C29.0163 8.36931 28.9857 8.36931 28.9552 8.36931C29.074 8.30822 29.1589 8.16227 29.1589 8.01292C29.1589 7.90431 29.1046 7.77533 29.0129 7.71424H29.1589C29.0741 7.63956 28.9383 7.48004 28.9111 7.37143C29.0163 7.40197 29.1759 7.54453 29.2505 7.62259V6.83175C29.1759 6.89285 29.0163 7.04559 28.9111 7.05916C28.9383 6.97092 29.0741 6.81818 29.1589 6.74011H28.3681C28.4291 6.81818 28.5819 6.97092 28.5955 7.05916C28.5038 7.04559 28.351 6.89285 28.2662 6.83175V7.62259C28.351 7.54453 28.5004 7.40197 28.5955 7.37143C28.5819 7.47664 28.4291 7.63617 28.3681 7.71424H28.5038C28.4122 7.77533 28.3681 7.90431 28.3681 8.01292C28.3681 8.16227 28.4427 8.31161 28.5649 8.36931C28.5344 8.36931 28.5038 8.36931 28.4563 8.35573L28.4733 8.55259L28.2968 8.56617L28.2798 8.41343C28.1441 8.36931 28.0389 8.39986 27.9472 8.45756C27.119 8.62727 26.5929 9.02778 26.9493 9.99511C27.0715 10.3651 27.248 10.7724 27.4584 11.0982V11.5157C27.4449 11.5293 27.4279 11.5598 27.3973 11.5904C27.1326 11.9637 26.111 12.5815 25.5476 12.7647V12.6663C25.6596 12.4762 25.7546 12.2488 25.8293 12.0418C26.0804 11.3697 25.7071 11.0982 25.1437 10.9692C25.0792 10.9251 25.0079 10.9081 24.9162 10.9387H24.9027L24.8857 11.0507L24.8111 11.0269L24.8246 10.8912H24.8111C24.8551 10.847 24.8857 10.769 24.8857 10.6943C24.8857 10.6128 24.8722 10.5484 24.8246 10.5042H24.9162L24.8857 10.4737C24.8551 10.4431 24.8246 10.4126 24.7941 10.3651C24.7805 10.3515 24.7567 10.3209 24.7398 10.304C24.7567 10.3176 24.7941 10.3345 24.8077 10.3481C24.8517 10.3787 24.8823 10.4092 24.9162 10.4397L24.9468 10.4703V9.85595L24.9162 9.89329C24.8857 9.90686 24.8551 9.93741 24.8077 9.97135C24.7941 10.0019 24.7567 10.0019 24.7398 10.0155C24.7567 10.0019 24.7771 9.98493 24.7941 9.95438C24.8246 9.92383 24.8551 9.87971 24.8857 9.85595L24.9162 9.80843H24.2917L24.3223 9.85595C24.3359 9.87632 24.3766 9.92383 24.4072 9.95438C24.4377 9.98493 24.4512 10.0019 24.4512 10.0155C24.4411 9.99851 24.4241 9.99851 24.397 9.96796C24.3596 9.93741 24.3121 9.90686 24.2985 9.88989L24.251 9.85256V10.4771L24.2985 10.4465C24.3121 10.416 24.3596 10.3854 24.397 10.3549C24.4275 10.3413 24.4411 10.3243 24.4546 10.3108C24.4546 10.3243 24.4411 10.3549 24.4106 10.3719C24.38 10.4194 24.3393 10.4465 24.3257 10.4805L24.2951 10.511H24.3766C24.3393 10.5552 24.3053 10.6196 24.3053 10.7011C24.3053 10.7758 24.3359 10.8538 24.4072 10.898H24.3766L24.3936 11.0337L24.3087 11.0575L24.2951 10.9455H24.2782C24.1865 10.9149 24.1119 10.9319 24.0507 10.976C23.4873 11.105 23.114 11.3799 23.3652 12.0486C23.4432 12.2556 23.5349 12.483 23.6469 12.6731V12.8191C23.6231 12.8191 23.6028 12.8123 23.5857 12.8123C23.2124 12.7342 22.5879 12.5 22.4827 12.1266C22.3842 11.8144 22.6049 11.3969 22.6965 11.2136C22.8425 10.9014 23.0868 10.3922 22.8289 10.063C22.7135 9.9408 22.5472 9.89668 22.3842 9.81183C22.1874 9.70661 22.0652 9.59799 21.8141 9.4758C21.6138 9.3638 21.2744 9.50635 20.9282 10.063C20.8535 10.1852 20.694 10.3277 20.6295 10.3922C20.0288 10.4669 19.6418 10.657 19.557 11.01C19.4178 11.7092 20.1034 11.6956 20.0593 12.1266C20.0423 12.3778 19.7776 12.2013 19.6554 12.1877C19.4178 12.1266 19.1836 12.2692 19.1836 12.5747C19.1836 12.7037 19.2685 12.9922 19.557 13.1687C19.4348 12.948 19.4484 12.6731 19.6554 12.7342C20.0899 12.8734 20.3308 12.8869 20.6159 12.5136C20.6159 12.7172 20.4327 12.8869 20.3512 13.0634C20.1815 13.4979 20.4632 13.9595 21.0198 13.9459C20.7687 13.7084 20.8196 13.4368 20.8196 13.4368C20.8977 13.0465 21.142 12.9345 21.2235 12.6052C21.3932 11.8823 20.7212 11.7703 20.8671 11.0914C20.8807 10.993 20.9112 10.8097 20.9587 10.7181C21.3932 10.657 21.6308 10.4839 21.9329 10.3447C22.2451 10.9455 21.3457 11.7193 21.9192 12.3303C22.2485 12.6731 22.856 12.87 23.4873 12.9141C23.5009 12.9141 23.5213 12.9209 23.5383 12.9243C23.4941 12.9548 23.4704 13.0125 23.4704 13.0906C23.3041 13.0295 23.1751 13.1211 23.1989 13.3044C22.5438 13.3044 21.9668 13.6947 22.1094 14.455C22.1534 14.7368 22.2621 14.8589 22.4386 14.9947C22.7135 14.5603 23.5043 14.5297 24.0202 14.8114C23.7385 14.7945 23.3346 14.8725 23.0868 14.9777C22.7949 15.1067 22.425 15.2764 22.0381 15.2323C21.7699 15.2018 21.6342 15.0355 21.5799 14.842C21.4577 14.9506 21.5493 15.48 22.0042 15.6973C22.2315 15.8093 22.6354 15.8568 22.9171 15.6498C23.0257 15.5887 23.4432 15.1271 23.9557 15.1271C23.2158 15.3239 23.0088 15.8568 23.5891 16.1759C23.5654 15.9926 23.5383 15.7414 23.9082 15.514C24.1152 15.385 24.4411 15.307 24.7635 15.4054C24.8756 15.4495 25.0283 15.5276 25.1199 15.5581C25.2794 15.5717 25.3541 15.48 25.4016 15.436C25.7308 15.6803 26.2094 16.4406 26.3146 16.9192C26.43 17.469 26.3452 17.8255 26.0703 18.1479C25.9786 18.2463 25.5374 18.6027 25.1064 18.2294C25.0656 18.5789 25.2455 18.8369 25.5272 18.9319C25.2761 18.9591 25.1064 18.9692 25.103 18.9692H25.0588L25.0419 19.01C25.0385 19.0168 25.0011 19.105 24.9536 19.2815C24.7975 19.2205 24.6617 19.1084 24.5802 18.9523C24.2069 19.38 24.3223 20.0656 24.8246 20.2624C24.8212 20.3575 24.8178 20.4559 24.8178 20.5611C24.3868 20.8937 23.6062 20.8225 23.2192 20.2523C22.9205 19.8178 23.2633 19.5055 23.4331 19.3324C23.8675 18.915 23.8675 18.5111 23.5518 18.063C23.1479 17.4623 21.9091 16.4779 21.4305 15.7618C21.3525 15.8908 21.3083 16.0129 21.2914 16.0605C20.8433 15.7211 20.341 15.0117 20.1747 14.4788C20.0831 14.4924 20.0152 14.5874 19.9371 14.6553C19.2447 13.7796 17.9821 11.6718 17.6257 10.8504C16.8723 11.2102 16.8858 12.2828 17.1166 12.8971C17.3203 13.4605 17.6631 14.0613 18.386 14.8997C18.1586 14.73 16.7433 13.2874 16.431 13.1042C15.9083 13.8509 16.2647 15.1678 17.2524 15.7245C16.9503 15.5853 16.2036 15.3036 15.7997 15.402C15.7251 16.2404 16.4005 16.8106 16.818 17.1229C16.4107 17.0312 15.9457 16.9634 15.4977 17.0923C15.5282 17.6625 16.1222 18.304 16.9571 18.5993C16.4242 18.545 15.8846 18.6163 15.5553 18.8131C15.6164 19.4071 16.2885 19.9197 17.0929 20.0418C16.5532 20.1029 16.0746 20.3405 15.8235 20.6663C16.1188 21.0533 16.5532 21.352 17.2151 21.3384C17.0623 21.3927 16.8858 21.4979 16.7365 21.6405C16.7195 21.6269 16.689 21.61 16.6618 21.61C16.6279 21.6235 16.6177 21.671 16.6279 21.7016C16.6279 21.7016 16.6279 21.7016 16.6279 21.7253C16.5634 21.7695 16.5295 21.8237 16.5227 21.8781C16.4616 21.9663 16.3971 22.0681 16.3631 22.1598C16.3801 22.1666 16.3937 22.1835 16.4073 22.1903C16.4039 22.2379 16.4174 22.2955 16.4548 22.3532C16.4242 22.3838 16.4107 22.4279 16.3937 22.4755L16.0068 22.3193C15.9864 22.6723 16.0645 22.9608 16.241 23.1407C16.3801 23.3002 16.5396 23.2765 16.4921 23.3308L16.913 23.5887C16.9877 23.7482 17.1404 23.7482 17.2456 23.7042C17.2456 23.7042 17.2456 23.7177 17.2456 23.7347C17.2456 23.901 17.361 24.0368 17.5103 24.0911C17.4798 24.2302 17.5409 24.3184 17.731 24.3829L19.3126 28.2184C19.2515 28.4016 19.3126 28.5612 19.4518 28.6223C19.4178 28.6664 19.3907 28.7139 19.3907 28.8055C19.4518 28.7614 19.5434 28.7445 19.5875 28.8734C19.6181 28.965 19.4518 29.2604 19.7029 29.4606C19.669 29.6371 19.764 29.817 19.9439 29.895C19.9439 29.9867 20.0288 30.282 20.0423 30.3872C19.9303 30.5468 19.669 30.7911 19.7029 31.0592C19.7335 31.2494 19.8081 31.3105 19.9609 31.3579C19.8998 31.7008 20.0899 31.8535 20.3784 31.8705C20.3784 32.1216 20.6126 32.2099 20.7653 32.2268C20.9112 32.3355 20.9723 32.3796 21.1386 32.4645C20.9859 32.6444 21.0945 32.8819 21.3728 32.96C21.4034 33.0652 21.4814 33.1569 21.6376 33.1942C21.7292 33.3469 21.8955 33.3469 21.9939 33.3028C22.055 33.2723 22.1637 33.0958 22.0686 32.9431C22.1297 32.8684 22.0992 32.7224 22.055 32.6308C22.1467 32.4645 22.0686 32.2574 21.9431 32.1963C21.96 32.1047 21.9125 31.9587 21.8819 31.8705C22.1026 31.7313 22.3775 31.5582 22.4759 31.4971C23.0156 31.1102 23.6265 30.764 24.3189 30.7199C24.4954 30.7029 24.8212 30.6893 25.0045 30.7029C25.2862 30.7334 25.6732 30.8183 25.9006 30.6418C25.9718 30.5976 26.0159 30.5196 26.0024 30.4449C25.9719 30.2684 25.7817 30.1157 25.7206 29.9595C25.7037 29.9121 25.6766 29.8408 25.646 29.7763C25.8429 29.8102 26.0261 29.7831 26.1382 29.7287C26.2603 29.6847 26.5556 29.464 26.5421 29.1348C26.3045 29.2468 25.7342 29.3995 25.6732 28.8225C25.6121 28.3134 26.0601 27.8789 26.7626 28.069C27.2412 28.1912 27.9404 29.2095 27.3023 29.6541C26.99 29.8679 26.5115 30.0716 26.5726 30.6282C26.7762 30.3771 27.0511 30.2549 27.4076 30.2854C26.8848 30.6723 26.4809 30.7199 25.9311 31.0152C25.4525 31.2968 25.0961 31.7619 24.7194 31.7755C24.4309 31.789 24.2714 31.4462 24.5531 31.1815C24.2714 31.1204 23.898 31.341 23.7928 31.6363C23.657 32.0402 23.7623 32.3287 24.0134 32.4916C23.6741 32.6749 23.4194 33.0313 23.5417 33.5404C23.657 33.9579 24.0746 33.9579 23.915 34.4908C24.1492 34.4297 24.3019 34.2702 24.3698 34.0427C24.4004 33.8832 24.4309 33.7169 24.509 33.6389C24.475 33.9579 24.6583 34.4297 25.0961 34.6435C25.3914 34.7895 25.8564 34.8471 26.2128 34.4772C26.3587 34.8947 26.8509 35.2545 27.3634 35.2375C27.5976 35.2375 27.8284 35.1357 28.0015 35.0339C28.1237 35.3427 28.436 35.6584 28.7448 35.8077C29.0638 35.6584 29.3761 35.3427 29.5051 35.0339C29.6748 35.139 29.909 35.2375 30.1364 35.2375C30.6285 35.2511 31.1478 34.8947 31.2869 34.4772C31.6434 34.8471 32.1084 34.7895 32.4037 34.6435C32.8381 34.4297 33.0213 33.9579 32.9908 33.6389C33.0723 33.7169 33.1028 33.8832 33.1368 34.0427C33.1979 34.2702 33.3472 34.4297 33.5847 34.4908C33.4252 33.9579 33.8529 33.9579 33.9581 33.5404C34.0803 33.0313 33.8291 32.6715 33.4931 32.4916C33.7375 32.3321 33.8529 32.0436 33.707 31.6363C33.6018 31.341 33.2284 31.1204 32.9467 31.1815C33.2284 31.4462 33.0757 31.789 32.7804 31.7755C32.407 31.7619 32.0506 31.2934 31.5687 31.0152C31.0222 30.7165 30.6183 30.6723 30.0922 30.2854C30.4486 30.2549 30.7303 30.3771 30.9272 30.6282C30.9883 30.0716 30.5097 29.8679 30.1975 29.6541C29.5662 29.2095 30.2586 28.1912 30.7473 28.069C31.4397 27.8789 31.8979 28.3134 31.8266 28.8225C31.7519 29.4029 31.1953 29.2502 30.9442 29.1348C30.9442 29.4606 31.2395 29.6813 31.3616 29.7287C31.5042 29.7966 31.769 29.834 32.0031 29.7321C31.9963 29.7899 31.9861 29.851 31.9861 29.8679C31.9387 30.3634 31.6739 30.4076 31.7655 30.6113C31.8945 30.764 32.7464 30.7334 32.9772 30.781C33.3811 30.8353 33.7239 30.9846 34.1109 31.0627C34.5453 31.1543 35.0069 31.1543 35.3972 31.3139C35.6484 31.4224 35.9301 31.6261 36.1745 31.7483C36.5478 31.8094 36.4867 31.9621 36.7243 31.9621C36.9382 31.9621 37.0196 31.7789 37.2945 31.7042C37.4846 31.66 37.6984 31.7347 37.8885 31.6736C38.0276 31.6431 38.0887 31.5005 38.2177 31.4224C38.3705 31.3308 38.5842 31.3308 38.7268 31.1984C38.8015 31.1305 38.8184 31.0016 38.8049 30.91L38.8083 30.9303C39.1002 30.7266 39.3208 30.4279 39.443 30.0852C39.5176 30.0716 39.5787 30.0037 39.5787 29.9256C39.5787 29.9121 39.5787 29.895 39.5787 29.895C39.6534 29.834 39.7009 29.7423 39.7009 29.6507C39.7009 29.5353 39.6568 29.4437 39.5787 29.369C39.5787 29.369 39.5787 29.352 39.5787 29.3384C39.5787 29.2773 39.5482 29.2332 39.5176 29.1925C39.3955 28.5306 38.8931 27.9977 38.2449 27.8314C38.2449 27.8145 38.2449 27.8145 38.2449 27.8009H38.2313C38.2313 27.7703 38.2177 27.7534 38.194 27.7534C38.1023 27.6617 37.9937 27.5192 37.9801 27.4276C38.0853 27.4581 38.2618 27.6244 38.3534 27.6923V26.8166C38.2618 26.8845 38.0887 27.0508 37.9801 27.0813C37.9937 26.9727 38.16 26.7826 38.2449 26.7079H37.3556C37.4371 26.7826 37.6068 26.9727 37.6203 27.0813C37.5151 27.0508 37.3387 26.8845 37.2504 26.8166V27.6923C37.3421 27.6244 37.5151 27.4581 37.6203 27.4276C37.6068 27.5361 37.4371 27.7262 37.3556 27.8009L37.3861 27.8145C36.7243 27.9672 36.1914 28.5171 36.0693 29.1925C36.0251 29.2298 35.9946 29.2773 35.9946 29.3384C35.9946 29.352 35.9946 29.369 35.9946 29.369C35.9165 29.4437 35.8724 29.5353 35.8724 29.6507C35.8724 29.7389 35.9165 29.834 35.9946 29.895C35.9946 29.895 35.9946 29.9087 35.9946 29.9256C35.9946 30.024 36.0557 30.0716 36.1303 30.0852C36.1609 30.17 36.1982 30.2549 36.239 30.3295C36.239 30.3227 36.239 30.3227 36.2491 30.3126C36.1948 30.5637 35.8893 30.7165 35.8215 30.7165C35.2784 30.7945 34.6777 30.5637 34.1312 30.3601C33.8902 30.2684 33.561 30.1632 33.4015 29.9256C33.3031 29.7526 33.2589 29.6439 33.3099 29.4912C33.371 29.5658 33.4694 29.6507 33.6086 29.7254C33.6221 29.6507 33.6221 29.5658 33.6526 29.5047C33.7918 29.7118 34.0124 29.817 34.2772 29.8034C34.1176 29.6676 34.043 29.3079 34.1176 28.9956C34.3383 29.369 35.1766 29.4437 35.3293 28.775C35.017 28.921 34.8168 28.7614 34.7591 28.5917C34.6675 28.3236 34.973 27.6753 34.698 27.1763C34.4774 26.803 34.2262 26.5756 33.6425 26.4839C33.6866 26.4126 33.7036 26.3516 33.7171 26.2463C33.1775 26.4432 32.7125 26.2905 32.4919 25.8594C32.6005 25.9035 32.7566 25.9205 32.9094 25.9205C32.4308 25.5302 32.4613 24.4271 32.8042 23.8568C32.8482 23.8263 32.8652 23.7958 32.9094 23.7822C33.0146 23.996 33.3268 23.996 33.4863 24.1692C33.5474 24.108 33.578 24.0911 33.6391 24.0402C33.6391 24.0402 33.6526 24.9464 33.7137 25.3197C33.7749 25.7372 34.1787 25.6931 34.3858 25.8764C34.6302 25.6082 35.0714 25.6218 35.0035 25.1602C34.9424 24.6986 34.8507 24.2777 34.8372 23.9655C34.973 24.2472 35.2411 25.3062 35.3463 25.6082C35.5194 26.0563 35.9538 25.9205 36.1982 26.097C36.3577 25.7847 36.7616 25.6931 36.6021 25.2213C36.558 25.0992 35.8962 23.7076 35.7977 23.4394C36.0319 23.7822 36.6734 25.0075 36.8703 25.3503C37.0909 25.7067 37.4948 25.5336 37.7832 25.6218C37.8376 25.3639 38.2279 25.0652 37.9428 24.6171C37.5864 24.0232 36.748 22.9879 36.704 22.842C36.8703 23.0015 38.1702 24.6171 38.272 24.7054C38.5741 24.9702 39.0153 24.7665 39.2767 24.7665C39.2767 24.4712 39.5109 24.1352 39.1715 23.7924C38.8592 23.4937 38.143 22.9846 37.9903 22.8115C38.4689 23.1407 39.0323 23.6634 39.3683 23.7482C39.9623 23.901 40.1761 23.6634 40.3967 23.5718C40.2134 23.0321 40.4578 22.7809 39.202 22.2548C40.2881 22.6418 40.7701 22.4517 41.157 22.1462C41.0043 21.7592 40.6173 21.4334 40.3017 21.3248C40.9669 21.3384 41.4082 21.0431 41.6967 20.6528C41.4523 20.3269 40.9669 20.0894 40.4103 20.0282C41.2317 19.9163 41.8867 19.4071 41.9614 18.8131ZM16.767 22.8013C16.7535 22.8013 16.7535 22.8149 16.7365 22.8318C16.6449 22.8182 16.6449 22.7097 16.6618 22.618C16.7059 22.618 16.7365 22.6044 16.767 22.5739L16.7806 22.5908L16.7365 22.6214C16.7535 22.6791 16.7535 22.7402 16.767 22.8013ZM17.0657 23.4394L16.9164 23.3511C16.9775 23.2799 17.0352 23.2799 17.0963 23.3206C17.0963 23.3647 17.0963 23.4089 17.0657 23.4394ZM17.5137 22.489C17.4934 22.489 17.473 22.489 17.4527 22.489C17.4493 22.4856 17.4459 22.4789 17.4425 22.4755C17.4696 22.4687 17.5002 22.4687 17.5239 22.4618C17.5239 22.4687 17.5171 22.4789 17.5137 22.489ZM26.1449 33.6083C25.7716 33.6083 25.5069 33.3741 25.6969 33.0449C25.7953 33.1942 25.9922 33.2621 26.1619 33.279C26.1449 33.4352 26.1449 33.4793 26.1449 33.6083ZM31.8232 33.0449C32.0133 33.3741 31.7486 33.6083 31.3752 33.6083C31.3752 33.4793 31.3752 33.4352 31.3447 33.279C31.5177 33.2655 31.7214 33.201 31.8232 33.0449ZM26.1314 12.8971C26.9832 12.7138 27.8521 12.2353 28.2425 11.8314C28.5649 11.8517 28.9824 11.8551 29.298 11.8347C29.6816 12.242 30.5369 12.7104 31.3922 12.8937C30.8967 12.8937 30.0312 12.8496 29.9225 12.7274C29.9531 13.0397 30.6149 13.3926 31.0494 13.4877C30.6896 13.5318 30.357 13.4877 30.0753 13.3587C30.228 13.5794 30.4045 13.7457 30.693 13.8441C30.3909 14.2174 29.7664 14.4584 29.1487 14.4007C29.3014 14.584 29.5831 14.6994 29.8275 14.6655C29.2709 15.5513 28.8602 16.461 28.7618 17.5132H28.7584V17.5166C28.6667 16.461 28.256 15.5513 27.7028 14.6655C27.9539 14.696 28.2289 14.584 28.3715 14.4007C27.7469 14.4618 27.1462 14.2174 26.8339 13.8441C27.1258 13.7457 27.2989 13.5794 27.4516 13.3587C27.1767 13.4877 26.8339 13.5318 26.4776 13.4877C26.912 13.3892 27.5806 13.0397 27.6112 12.7274C27.4924 12.853 26.6269 12.8971 26.1314 12.8971ZM18.3215 22.2616C18.2435 22.2955 18.1484 22.3363 18.0772 22.3668C18.0772 22.36 18.0772 22.3532 18.0772 22.3465C18.1518 22.3159 18.2469 22.2887 18.3215 22.2616ZM23.7996 26.2497C23.8166 26.355 23.8302 26.4161 23.8743 26.4873C23.2871 26.579 23.0394 26.8064 22.8255 27.1797C22.5268 27.6821 22.8391 28.3304 22.7542 28.5951C22.6931 28.7614 22.4997 28.9244 22.1874 28.7784C22.3402 29.4505 23.1751 29.3724 23.3957 28.999C23.4704 29.3113 23.3957 29.6711 23.243 29.8068C23.5043 29.8204 23.7249 29.7152 23.8607 29.5081C23.8912 29.5692 23.8912 29.6541 23.9048 29.7287C24.0507 29.6541 24.1424 29.5692 24.2035 29.4946C24.2273 29.5692 24.2544 29.7457 24.2204 29.8883C24.1085 29.9629 23.9829 30.0342 23.786 30.1361C23.4738 30.2888 22.9036 30.5094 22.5777 30.5535C22.3096 30.5976 21.8446 30.4449 21.7258 30.0716C21.6172 29.7152 21.3219 29.5998 21.0877 29.8204C21.0266 29.7763 20.8603 29.7423 20.789 29.8544C20.789 29.8544 20.7144 29.6847 20.6227 29.6032C20.6838 29.4199 20.6363 29.1992 20.47 29.1246C20.4564 28.7648 20.2358 28.7648 20.1577 28.6426C20.1136 28.5679 20.1136 28.4729 20.2188 28.4594C20.1747 28.3915 20.0797 28.3779 20.0661 28.3779C20.0966 28.2252 20.0491 28.035 19.8455 27.974L18.0398 24.2472C18.1552 24.125 18.0941 23.9485 17.9652 23.8874C17.9652 23.8874 17.9652 23.8739 17.9652 23.8568C17.9753 23.8263 17.9787 23.806 17.9821 23.7822C18.0296 23.7754 18.0907 23.7618 18.1416 23.7482C18.498 23.6634 19.0547 23.1407 19.5366 22.8115C19.3669 22.9879 18.6677 23.4971 18.3555 23.7924C18.0636 24.0809 18.1858 24.3694 18.2333 24.6307L18.3012 24.7767C18.5659 24.7937 18.963 24.9532 19.2583 24.7088C19.3499 24.6171 20.6533 23.0015 20.8264 22.8454C20.7585 22.9913 19.9371 24.0266 19.5638 24.6205C19.2889 25.0686 19.6928 25.3639 19.7403 25.6252C20.0356 25.5336 20.4395 25.7101 20.6533 25.3537C20.8603 25.0109 21.4916 23.7856 21.7258 23.4428C21.6342 23.7109 20.9655 25.1026 20.918 25.2247C20.7585 25.6965 21.1624 25.7881 21.3219 26.1004C21.5663 25.9239 22.0042 26.0631 22.1739 25.6116C22.2791 25.3095 22.5472 24.2506 22.6863 23.9689C22.6694 24.2811 22.5777 24.702 22.5166 25.1636C22.4555 25.6286 22.89 25.6116 23.1174 25.8798C23.338 25.6965 23.7419 25.7406 23.803 25.3231C23.8641 24.9498 23.8777 24.0436 23.8777 24.0436C23.9388 24.0979 23.9693 24.1114 24.0372 24.1726C24.1865 23.996 24.5022 23.996 24.6074 23.7856C24.6549 23.7992 24.6685 23.8297 24.716 23.8603C25.0588 24.4305 25.0859 25.5336 24.6074 25.9239C24.7466 25.9239 24.9196 25.9069 25.0249 25.8628C24.8144 26.2939 24.3427 26.4466 23.7996 26.2497ZM27.1734 31.4632C26.8916 31.8501 26.671 32.1318 26.4877 32.6138C26.1585 32.5832 26.223 32.1794 26.3282 31.9757C26.5488 31.5718 27.4449 31.0457 27.8963 30.5196C27.696 30.8556 27.4177 31.1611 27.1734 31.4632ZM28.1474 32.1794C27.9642 32.8921 27.8352 33.9443 27.8963 34.4161C27.265 34.0869 27.6213 32.8174 27.8657 32.271C28.2052 31.5107 28.4427 30.5807 28.5208 29.9867C28.7176 30.4381 28.2798 31.6974 28.1474 32.1794ZM29.6239 34.4161C29.6849 33.9443 29.5628 32.8921 29.3727 32.1794C29.2404 31.6974 28.8059 30.4381 28.9994 29.9867C29.074 30.5807 29.3116 31.5073 29.6544 32.271C29.8988 32.8174 30.2551 34.0869 29.6239 34.4161ZM31.1919 31.9723C31.3006 32.1794 31.3616 32.5799 31.0324 32.6104C30.8491 32.1284 30.6285 31.8501 30.357 31.4598C30.1025 31.1611 29.8241 30.8522 29.6239 30.5162C30.0719 31.0457 30.9713 31.5684 31.1919 31.9723ZM31.1139 26.5247C30.2891 28.1267 28.7787 29.43 28.7618 29.4131C28.7448 29.4334 27.2344 28.1267 26.4097 26.5247C25.5849 24.926 25.0554 22.411 25.0283 21.2094C24.9977 20.0079 25.2353 19.4954 25.2353 19.4954C25.2353 19.4954 26.2671 19.4376 27.0919 19.1526C27.791 18.9116 28.5513 18.2972 28.7652 18.1173C28.979 18.2972 29.7393 18.9082 30.4419 19.1526C31.2632 19.4411 32.295 19.4954 32.295 19.4954C32.295 19.4954 32.5292 20.0113 32.4987 21.2094C32.4647 22.411 31.9353 24.926 31.1139 26.5247Z" fill="#31303D"/>
<path d="M59.363 22.7844C59.8824 22.6723 60.4492 22.5943 61.0635 22.5536C61.6779 22.5094 62.2786 22.4891 62.876 22.4891C63.5073 22.4891 64.1488 22.5434 64.7971 22.6554C65.4488 22.7674 66.0393 22.971 66.5722 23.2697C67.1051 23.5684 67.5395 23.9791 67.8824 24.5052C68.2218 25.0313 68.3949 25.7102 68.3949 26.5383C68.3949 27.3189 68.2387 27.9842 67.9299 28.5341C67.6211 29.0839 67.2069 29.5354 66.6945 29.8815C66.1819 30.2278 65.5913 30.4823 64.9295 30.6418C64.2676 30.8014 63.582 30.8828 62.876 30.8828C62.8013 30.8828 62.6859 30.8794 62.5332 30.8726C62.3771 30.8659 62.2175 30.8591 62.0512 30.8557C61.8849 30.8489 61.722 30.8387 61.5693 30.8286C61.4131 30.8149 61.3011 30.8047 61.2264 30.7912V35.6584H59.3698V22.7844H59.363ZM62.9303 24.1217C62.5943 24.1217 62.2719 24.1284 61.9562 24.1386C61.6405 24.1522 61.3961 24.1828 61.223 24.2302V29.1552C61.2841 29.1789 61.386 29.196 61.5285 29.2028C61.6711 29.2095 61.8204 29.2163 61.9732 29.2299C62.1293 29.2434 62.2753 29.2468 62.4178 29.2468C62.5603 29.2468 62.669 29.2468 62.7436 29.2468C63.1882 29.2468 63.6295 29.2129 64.064 29.145C64.4984 29.0771 64.8887 28.9481 65.2451 28.7513C65.5981 28.5544 65.8832 28.2829 66.1005 27.9265C66.3177 27.5736 66.4263 27.1153 66.4263 26.5519C66.4263 26.0631 66.3211 25.6626 66.1106 25.3436C65.9002 25.0279 65.6287 24.7768 65.2927 24.5934C64.96 24.4102 64.5832 24.2846 64.1692 24.2167C63.7517 24.1556 63.3376 24.1217 62.9303 24.1217Z" fill="#31303D"/>
<path d="M68.8189 30.7911C68.8189 29.9866 68.9242 29.2637 69.1346 28.6256C69.345 27.9874 69.6539 27.4444 70.0646 26.9998C70.4719 26.5551 70.9708 26.2123 71.5614 25.9781C72.1486 25.7439 72.8206 25.6251 73.5776 25.6251C74.3684 25.6251 75.0642 25.7541 75.6581 26.0154C76.2521 26.2768 76.7477 26.6366 77.1448 27.1016C77.5419 27.5666 77.8338 28.1096 78.0273 28.7376C78.2208 29.3621 78.3158 30.0477 78.3158 30.7911C78.3158 31.5819 78.2071 32.2946 77.99 32.9259C77.7727 33.5573 77.4639 34.0969 77.06 34.5416C76.656 34.9862 76.1605 35.329 75.5733 35.5632C74.9861 35.7974 74.3208 35.9162 73.5776 35.9162C72.7595 35.9162 72.0536 35.7872 71.4596 35.5259C70.8656 35.2645 70.3734 34.9082 69.9831 34.4499C69.5928 33.9917 69.3009 33.4487 69.1108 32.8241C68.914 32.1996 68.8189 31.5208 68.8189 30.7911ZM70.6755 30.7911C70.6755 31.2493 70.7265 31.6973 70.8317 32.1385C70.9369 32.5798 71.1032 32.9701 71.3374 33.3197C71.5716 33.6693 71.8703 33.9442 72.2368 34.1546C72.6034 34.3651 73.0548 34.4703 73.5945 34.4703C75.502 34.4703 76.4558 33.245 76.4558 30.7944C76.4558 30.3124 76.4049 29.8474 76.2997 29.3994C76.1944 28.9548 76.0315 28.5611 75.8041 28.2216C75.5767 27.8822 75.2814 27.6073 74.9148 27.3935C74.5483 27.183 74.107 27.0778 73.5945 27.0778C72.6408 27.0778 71.9178 27.3833 71.4223 27.9977C70.9233 28.6052 70.6755 29.5386 70.6755 30.7911Z" fill="#31303D"/>
<path d="M87.6733 34.9862C87.239 35.2951 86.7329 35.5293 86.1492 35.682C85.5655 35.8382 84.9544 35.9162 84.3094 35.9162C83.4916 35.9162 82.7957 35.7906 82.2185 35.5429C81.642 35.2951 81.177 34.9489 80.817 34.5043C80.4572 34.0596 80.1993 33.5199 80.0364 32.8886C79.8768 32.2573 79.7954 31.5581 79.7954 30.7911C79.7954 29.1448 80.1959 27.8721 80.9937 26.9726C81.7914 26.0766 82.9418 25.6251 84.4385 25.6251C85.094 25.6251 85.664 25.6828 86.1492 25.8016C86.6311 25.9204 87.0655 26.0664 87.449 26.2395L87.0081 27.6311C86.6755 27.458 86.3155 27.3222 85.9287 27.2238C85.542 27.1253 85.1207 27.0744 84.6661 27.0744C82.6601 27.0744 81.659 28.3133 81.659 30.7911C81.659 31.2628 81.7131 31.7177 81.8253 32.1555C81.9368 32.5967 82.1135 32.9871 82.3614 33.3264C82.6092 33.6659 82.9314 33.9442 83.3285 34.1546C83.729 34.3651 84.2181 34.4703 84.7953 34.4703C85.3111 34.4703 85.7657 34.399 86.1524 34.2564C86.5398 34.1139 86.862 33.9442 87.1235 33.7474L87.6733 34.9862Z" fill="#31303D"/>
<path d="M96.3283 34.9862C95.894 35.2951 95.3879 35.5293 94.8042 35.682C94.2205 35.8382 93.6094 35.9162 92.9644 35.9162C92.1466 35.9162 91.4507 35.7906 90.8735 35.5429C90.297 35.2951 89.832 34.9489 89.472 34.5043C89.112 34.0596 88.8544 33.5199 88.6913 32.8886C88.5316 32.2573 88.45 31.5581 88.45 30.7911C88.45 29.1448 88.8511 27.8721 89.6487 26.9726C90.4464 26.0766 91.5968 25.6251 93.0935 25.6251C93.749 25.6251 94.319 25.6828 94.8042 25.8016C95.2861 25.9204 95.7205 26.0664 96.104 26.2395L95.6631 27.6311C95.3305 27.458 94.9705 27.3222 94.5837 27.2238C94.1964 27.1253 93.7757 27.0744 93.3211 27.0744C91.315 27.0744 90.314 28.3133 90.314 30.7911C90.314 31.2628 90.3681 31.7177 90.4803 32.1555C90.5918 32.5967 90.7685 32.9871 91.0164 33.3264C91.2609 33.6659 91.5863 33.9442 91.9868 34.1546C92.3879 34.3651 92.8764 34.4703 93.4535 34.4703C93.9694 34.4703 94.424 34.399 94.8107 34.2564C95.1981 34.1139 95.5203 33.9442 95.7785 33.7474L96.3283 34.9862Z" fill="#31303D"/>
<path d="M104.797 30.085L105.058 28.1538H104.854L103.944 29.9731L99.3759 35.6582H98.0592V25.9035H99.7699V31.66L99.6407 33.3706H99.8442L100.7 31.7177L105.176 25.9035H106.514V35.6549H104.803V30.085H104.797Z" fill="#31303D"/>
<path d="M115.776 30.085L116.038 28.1538H115.834L114.924 29.9731L110.356 35.6582H109.039V25.9035H110.746V31.66L110.617 33.3706H110.821L111.676 31.7177L116.153 25.9035H117.49V35.6549H115.779V30.085H115.776Z" fill="#31303D"/>
<path d="M69.8544 11.7838L70.0546 9.86274H69.9562L69.1993 11.6175L65.5777 17.3978H65.0788L61.24 11.6005L60.5238 9.86274H60.4254L60.7037 11.7635V20.3779H59.1526V7.57507H60.3846L64.7428 14.1224L65.3978 15.5479H65.4386L66.0563 14.085L70.2141 7.57507H71.5073V20.3745H69.8544V11.7838Z" fill="#31303D" stroke="#31303D" stroke-width="0.364703" stroke-miterlimit="10"/>
<path d="M80.9364 14.9642L80.997 13.8305H80.9364L80.1216 15.0015L75.6448 20.3779H74.7283V11.234H76.3201V16.8106L76.259 17.89H76.3371L77.1144 16.7563L81.5911 11.234H82.5244V20.3779H80.9331V14.9642H80.9364Z" fill="#31303D" stroke="#31303D" stroke-width="0.364703" stroke-miterlimit="10"/>
<path d="M91.6783 16.3354H87.1809V20.3779H85.589V11.234H87.1809V15.0558H91.6783V11.234H93.2703V20.3779H91.6783V16.3354Z" fill="#31303D" stroke="#31303D" stroke-width="0.364703" stroke-miterlimit="10"/>
<path d="M105.268 22.6995H104.192L103.894 20.3779H96.3348V11.234H97.9268V19.0982H102.244V11.234H103.836V19.0982H105.268V22.6995Z" fill="#31303D" stroke="#31303D" stroke-width="0.364703" stroke-miterlimit="10"/>
<path d="M113.445 14.9642L113.506 13.8305H113.445L112.63 15.0015L108.153 20.3779H107.237V11.234H108.829V16.8106L108.767 17.89H108.849L109.626 16.7563L114.103 11.234H115.037V20.3779H113.445V14.9642Z" fill="#31303D" stroke="#31303D" stroke-width="0.364703" stroke-miterlimit="10"/>
<path d="M122.574 20.4491C122.347 20.5238 122.113 20.5645 121.869 20.5781C121.624 20.5917 121.4 20.595 121.204 20.595C119.995 20.595 119.068 20.2047 118.417 19.4241C117.765 18.6434 117.442 17.4385 117.442 15.8025C117.442 14.2412 117.799 13.0668 118.519 12.2726C119.235 11.4818 120.27 11.0846 121.621 11.0846C121.991 11.0846 122.31 11.1084 122.574 11.1593V7.57507H124.088V11.1763C124.326 11.1389 124.539 11.1152 124.727 11.1016C124.913 11.088 125.09 11.0846 125.263 11.0846C126.576 11.0846 127.564 11.4342 128.226 12.1368C128.887 12.8394 129.22 14.0002 129.22 15.6192C129.22 16.3863 129.132 17.0787 128.952 17.6931C128.772 18.3074 128.511 18.8301 128.165 19.2578C127.819 19.6855 127.398 20.0147 126.902 20.2455C126.403 20.4763 125.829 20.5917 125.181 20.5917C125.062 20.5917 124.886 20.5815 124.655 20.5645C124.424 20.5476 124.234 20.5136 124.088 20.4627V24.03H122.574V20.4491ZM121.6 19.3902C121.76 19.3902 121.92 19.3834 122.079 19.3732C122.239 19.3596 122.411 19.3358 122.595 19.2985V12.3676C122.436 12.3439 122.286 12.3235 122.147 12.3133C122.008 12.2997 121.838 12.2963 121.641 12.2963C120.819 12.2963 120.178 12.5781 119.72 13.1483C119.262 13.7151 119.034 14.601 119.034 15.8093C119.034 16.3218 119.085 16.797 119.184 17.2349C119.282 17.6727 119.438 18.0563 119.652 18.3787C119.863 18.7011 120.134 18.9523 120.457 19.1288C120.779 19.3019 121.162 19.3902 121.6 19.3902ZM124.961 12.293C124.801 12.293 124.659 12.2963 124.533 12.3031C124.407 12.3099 124.251 12.3371 124.065 12.3846V19.3324C124.197 19.3562 124.346 19.3732 124.513 19.3766C124.679 19.3834 124.862 19.3868 125.059 19.3868C125.908 19.3868 126.549 19.0643 126.98 18.416C127.411 17.7711 127.628 16.8377 127.628 15.6192C127.628 14.584 127.432 13.7694 127.041 13.1789C126.651 12.5916 125.959 12.293 124.961 12.293Z" fill="#31303D" stroke="#31303D" stroke-width="0.364703" stroke-miterlimit="10"/>
<path d="M131.627 11.2339H132.72L133.018 12.3302H133.097C133.402 11.9026 133.796 11.5767 134.281 11.3527C134.766 11.1287 135.319 11.0133 135.941 11.0133C137.268 11.0133 138.255 11.3731 138.904 12.0926C139.552 12.8122 139.878 13.99 139.878 15.6226C139.878 16.3896 139.769 17.082 139.549 17.6964C139.328 18.3107 139.022 18.8335 138.622 19.2611C138.225 19.6888 137.743 20.018 137.179 20.2488C136.616 20.4796 135.988 20.595 135.299 20.595C134.807 20.595 134.42 20.5678 134.135 20.5136C133.85 20.4593 133.541 20.3642 133.208 20.2285V24.0333H131.616V11.2339H131.627ZM135.645 12.2929C134.97 12.2929 134.434 12.4558 134.044 12.7783C133.653 13.1007 133.378 13.5928 133.219 14.2513V18.7859C133.456 18.9557 133.728 19.088 134.033 19.1796C134.338 19.2713 134.743 19.3154 135.248 19.3154C136.164 19.3154 136.891 19.0031 137.427 18.3752C137.964 17.7473 138.232 16.8241 138.232 15.6056C138.232 15.1067 138.184 14.6518 138.092 14.2446C138.001 13.8373 137.852 13.4876 137.644 13.2025C137.437 12.9174 137.173 12.6934 136.85 12.5339C136.524 12.3744 136.124 12.2929 135.645 12.2929Z" fill="#31303D" stroke="#31303D" stroke-width="0.364703" stroke-miterlimit="10"/>
<path d="M143.981 14.7266C144.3 14.679 144.605 14.6451 144.898 14.6248C145.189 14.6078 145.468 14.5976 145.732 14.5976C146.408 14.5976 146.975 14.6689 147.433 14.808C147.891 14.9472 148.258 15.1407 148.536 15.385C148.814 15.6295 149.011 15.9179 149.123 16.254C149.235 16.59 149.293 16.9464 149.293 17.3231C149.293 18.433 148.957 19.2374 148.288 19.7364C147.62 20.2353 146.533 20.4865 145.037 20.4865C144.188 20.4865 143.306 20.4492 142.389 20.3779V11.234H143.981V14.7266ZM143.981 19.0982C144.47 19.1729 144.941 19.2069 145.393 19.2069C146.228 19.2069 146.812 19.0575 147.144 18.7588C147.477 18.4602 147.643 18.0359 147.643 17.4895C147.643 17.0007 147.48 16.6002 147.155 16.2811C146.829 15.9655 146.262 15.8059 145.454 15.8059C145.226 15.8059 144.982 15.8127 144.718 15.8229C144.453 15.8365 144.208 15.8704 143.981 15.9315V19.0982ZM150.864 11.234H152.456V20.3779H150.864V11.234Z" fill="#31303D" stroke="#31303D" stroke-width="0.364703" stroke-miterlimit="10"/>
</g>
</g>
<path d="M168.91 18.5V9.98H171.85C172.594 9.98 173.202 10.208 173.674 10.664C174.154 11.12 174.394 11.676 174.394 12.332C174.394 13.036 174.13 13.584 173.602 13.976C174.514 14.352 174.97 15.028 174.97 16.004C174.97 16.716 174.71 17.312 174.19 17.792C173.678 18.264 173.022 18.5 172.222 18.5H168.91ZM170.314 17.216H172.186C172.634 17.216 172.982 17.104 173.23 16.88C173.478 16.656 173.602 16.36 173.602 15.992C173.602 15.632 173.478 15.34 173.23 15.116C172.982 14.884 172.634 14.768 172.186 14.768H170.314V17.216ZM170.314 13.568H171.778C172.154 13.568 172.454 13.46 172.678 13.244C172.902 13.028 173.014 12.752 173.014 12.416C173.014 12.096 172.902 11.824 172.678 11.6C172.454 11.376 172.154 11.264 171.778 11.264H170.314V13.568ZM180.261 18.5L177.609 15.944V18.5H176.289V12.5H177.609V15.068L179.973 12.5H181.581L178.869 15.452L182.013 18.5H180.261ZM182.781 18.596C182.485 18.596 182.269 18.58 182.133 18.548V17.408C182.309 17.424 182.441 17.432 182.529 17.432C182.777 17.432 182.961 17.352 183.081 17.192C183.201 17.024 183.261 16.732 183.261 16.316V12.5H188.145V18.5H186.825V13.676H184.581V16.52C184.581 17.2 184.409 17.716 184.065 18.068C183.729 18.42 183.301 18.596 182.781 18.596ZM195.282 18.62C194.514 18.62 193.85 18.376 193.29 17.888C192.73 17.4 192.394 16.788 192.282 16.052H191.238V18.5H189.918V12.5H191.238V14.888H192.294C192.422 14.16 192.762 13.56 193.314 13.088C193.866 12.616 194.522 12.38 195.282 12.38C196.154 12.38 196.874 12.68 197.442 13.28C198.018 13.88 198.306 14.62 198.306 15.5C198.306 16.38 198.018 17.12 197.442 17.72C196.874 18.32 196.154 18.62 195.282 18.62ZM194.058 16.856C194.378 17.208 194.786 17.384 195.282 17.384C195.778 17.384 196.182 17.208 196.494 16.856C196.814 16.496 196.974 16.044 196.974 15.5C196.974 14.956 196.814 14.508 196.494 14.156C196.182 13.796 195.778 13.616 195.282 13.616C194.786 13.616 194.378 13.796 194.058 14.156C193.746 14.508 193.59 14.956 193.59 15.5C193.59 16.044 193.746 16.496 194.058 16.856ZM204.516 18.5H203.196V15.884C203.044 16.1 202.812 16.272 202.5 16.4C202.188 16.528 201.832 16.592 201.432 16.592C200.776 16.592 200.244 16.396 199.836 16.004C199.428 15.612 199.224 15.052 199.224 14.324V12.5H200.544V14.18C200.544 15.004 200.956 15.416 201.78 15.416C202.148 15.416 202.476 15.292 202.764 15.044C203.052 14.796 203.196 14.428 203.196 13.94V12.5H204.516V18.5ZM209.001 18.62C208.089 18.62 207.337 18.328 206.745 17.744C206.161 17.16 205.869 16.412 205.869 15.5C205.869 14.612 206.165 13.872 206.757 13.28C207.349 12.68 208.097 12.38 209.001 12.38C209.833 12.38 210.521 12.644 211.065 13.172C211.617 13.7 211.893 14.428 211.893 15.356C211.893 15.516 211.889 15.66 211.881 15.788H207.165C207.197 16.276 207.385 16.672 207.729 16.976C208.073 17.272 208.501 17.42 209.013 17.42C209.781 17.42 210.353 17.116 210.729 16.508L211.737 17.228C211.161 18.156 210.249 18.62 209.001 18.62ZM207.225 14.828H210.561C210.489 14.412 210.301 14.088 209.997 13.856C209.701 13.616 209.353 13.496 208.953 13.496C208.537 13.496 208.165 13.612 207.837 13.844C207.517 14.076 207.313 14.404 207.225 14.828ZM213.25 18.5V12.5H214.57V14.876H217.462V12.5H218.782V18.5H217.462V16.052H214.57V18.5H213.25ZM225.507 17.72C224.907 18.32 224.163 18.62 223.275 18.62C222.387 18.62 221.639 18.32 221.031 17.72C220.431 17.112 220.131 16.372 220.131 15.5C220.131 14.628 220.431 13.892 221.031 13.292C221.639 12.684 222.387 12.38 223.275 12.38C224.163 12.38 224.907 12.684 225.507 13.292C226.115 13.892 226.419 14.628 226.419 15.5C226.419 16.372 226.115 17.112 225.507 17.72ZM223.275 17.396C223.795 17.396 224.223 17.216 224.559 16.856C224.903 16.488 225.075 16.036 225.075 15.5C225.075 14.964 224.903 14.516 224.559 14.156C224.223 13.788 223.795 13.604 223.275 13.604C222.747 13.604 222.311 13.788 221.967 14.156C221.631 14.516 221.463 14.964 221.463 15.5C221.463 16.036 221.631 16.488 221.967 16.856C222.311 17.216 222.747 17.396 223.275 17.396ZM230.57 18.5V12.5H233.306C233.994 12.5 234.522 12.664 234.89 12.992C235.258 13.32 235.442 13.728 235.442 14.216C235.442 14.64 235.278 15.004 234.95 15.308C235.534 15.62 235.826 16.092 235.826 16.724C235.826 17.228 235.646 17.652 235.286 17.996C234.926 18.332 234.382 18.5 233.654 18.5H230.57ZM231.89 17.384H233.642C233.906 17.384 234.114 17.32 234.266 17.192C234.426 17.056 234.506 16.872 234.506 16.64C234.506 16.4 234.426 16.216 234.266 16.088C234.114 15.952 233.906 15.884 233.642 15.884H231.89V17.384ZM231.89 14.924H233.354C233.57 14.924 233.75 14.872 233.894 14.768C234.046 14.656 234.122 14.48 234.122 14.24C234.122 13.792 233.866 13.568 233.354 13.568H231.89V14.924ZM241.312 21.008H239.992V12.5H241.312V13.304C241.496 13.048 241.76 12.832 242.104 12.656C242.456 12.472 242.836 12.38 243.244 12.38C244.06 12.38 244.744 12.684 245.296 13.292C245.856 13.9 246.136 14.636 246.136 15.5C246.136 16.364 245.856 17.1 245.296 17.708C244.744 18.316 244.06 18.62 243.244 18.62C242.836 18.62 242.456 18.532 242.104 18.356C241.76 18.172 241.496 17.952 241.312 17.696V21.008ZM243.004 17.42C243.524 17.42 243.952 17.236 244.288 16.868C244.624 16.5 244.792 16.044 244.792 15.5C244.792 14.956 244.624 14.5 244.288 14.132C243.952 13.764 243.524 13.58 243.004 13.58C242.476 13.58 242.044 13.764 241.708 14.132C241.372 14.5 241.204 14.956 241.204 15.5C241.204 16.044 241.372 16.5 241.708 16.868C242.044 17.236 242.476 17.42 243.004 17.42ZM250.192 18.62C249.28 18.62 248.528 18.328 247.936 17.744C247.352 17.16 247.06 16.412 247.06 15.5C247.06 14.612 247.356 13.872 247.948 13.28C248.54 12.68 249.288 12.38 250.192 12.38C251.024 12.38 251.712 12.644 252.256 13.172C252.808 13.7 253.084 14.428 253.084 15.356C253.084 15.516 253.08 15.66 253.072 15.788H248.356C248.388 16.276 248.576 16.672 248.92 16.976C249.264 17.272 249.692 17.42 250.204 17.42C250.972 17.42 251.544 17.116 251.92 16.508L252.928 17.228C252.352 18.156 251.44 18.62 250.192 18.62ZM248.416 14.828H251.752C251.68 14.412 251.492 14.088 251.188 13.856C250.892 13.616 250.544 13.496 250.144 13.496C249.728 13.496 249.356 13.612 249.028 13.844C248.708 14.076 248.504 14.404 248.416 14.828ZM257.153 18.62C256.241 18.62 255.489 18.328 254.897 17.744C254.313 17.16 254.021 16.412 254.021 15.5C254.021 14.612 254.317 13.872 254.909 13.28C255.501 12.68 256.249 12.38 257.153 12.38C257.985 12.38 258.673 12.644 259.217 13.172C259.769 13.7 260.045 14.428 260.045 15.356C260.045 15.516 260.041 15.66 260.033 15.788H255.317C255.349 16.276 255.537 16.672 255.881 16.976C256.225 17.272 256.653 17.42 257.165 17.42C257.933 17.42 258.505 17.116 258.881 16.508L259.889 17.228C259.313 18.156 258.401 18.62 257.153 18.62ZM255.377 14.828H258.713C258.641 14.412 258.453 14.088 258.149 13.856C257.853 13.616 257.505 13.496 257.105 13.496C256.689 13.496 256.317 13.612 255.989 13.844C255.669 14.076 255.465 14.404 255.377 14.828ZM264.138 18.62C263.234 18.62 262.478 18.324 261.87 17.732C261.27 17.132 260.97 16.388 260.97 15.5C260.97 14.612 261.27 13.872 261.87 13.28C262.478 12.68 263.234 12.38 264.138 12.38C264.754 12.38 265.306 12.528 265.794 12.824C266.29 13.12 266.67 13.524 266.934 14.036L265.782 14.66C265.63 14.34 265.41 14.084 265.122 13.892C264.834 13.7 264.506 13.604 264.138 13.604C263.61 13.604 263.174 13.788 262.83 14.156C262.486 14.516 262.314 14.964 262.314 15.5C262.314 16.036 262.486 16.488 262.83 16.856C263.174 17.216 263.61 17.396 264.138 17.396C264.506 17.396 264.834 17.3 265.122 17.108C265.41 16.916 265.63 16.66 265.782 16.34L266.934 16.964C266.67 17.476 266.29 17.88 265.794 18.176C265.306 18.472 264.754 18.62 264.138 18.62ZM269.257 18.5V13.676H267.457V12.5H272.461V13.676H270.577V18.5H269.257ZM274.886 21.008H273.566V12.5H274.886V13.304C275.07 13.048 275.334 12.832 275.678 12.656C276.03 12.472 276.41 12.38 276.818 12.38C277.634 12.38 278.318 12.684 278.87 13.292C279.43 13.9 279.71 14.636 279.71 15.5C279.71 16.364 279.43 17.1 278.87 17.708C278.318 18.316 277.634 18.62 276.818 18.62C276.41 18.62 276.03 18.532 275.678 18.356C275.334 18.172 275.07 17.952 274.886 17.696V21.008ZM276.578 17.42C277.098 17.42 277.526 17.236 277.862 16.868C278.198 16.5 278.366 16.044 278.366 15.5C278.366 14.956 278.198 14.5 277.862 14.132C277.526 13.764 277.098 13.58 276.578 13.58C276.05 13.58 275.618 13.764 275.282 14.132C274.946 14.5 274.778 14.956 274.778 15.5C274.778 16.044 274.946 16.5 275.282 16.868C275.618 17.236 276.05 17.42 276.578 17.42ZM285.199 21.008H283.879V12.5H285.199V13.304C285.383 13.048 285.647 12.832 285.991 12.656C286.343 12.472 286.723 12.38 287.131 12.38C287.947 12.38 288.631 12.684 289.183 13.292C289.743 13.9 290.023 14.636 290.023 15.5C290.023 16.364 289.743 17.1 289.183 17.708C288.631 18.316 287.947 18.62 287.131 18.62C286.723 18.62 286.343 18.532 285.991 18.356C285.647 18.172 285.383 17.952 285.199 17.696V21.008ZM286.891 17.42C287.411 17.42 287.839 17.236 288.175 16.868C288.511 16.5 288.679 16.044 288.679 15.5C288.679 14.956 288.511 14.5 288.175 14.132C287.839 13.764 287.411 13.58 286.891 13.58C286.363 13.58 285.931 13.764 285.595 14.132C285.259 14.5 285.091 14.956 285.091 15.5C285.091 16.044 285.259 16.5 285.595 16.868C285.931 17.236 286.363 17.42 286.891 17.42ZM296.311 17.72C295.711 18.32 294.967 18.62 294.079 18.62C293.191 18.62 292.443 18.32 291.835 17.72C291.235 17.112 290.935 16.372 290.935 15.5C290.935 14.628 291.235 13.892 291.835 13.292C292.443 12.684 293.191 12.38 294.079 12.38C294.967 12.38 295.711 12.684 296.311 13.292C296.919 13.892 297.223 14.628 297.223 15.5C297.223 16.372 296.919 17.112 296.311 17.72ZM294.079 17.396C294.599 17.396 295.027 17.216 295.363 16.856C295.707 16.488 295.879 16.036 295.879 15.5C295.879 14.964 295.707 14.516 295.363 14.156C295.027 13.788 294.599 13.604 294.079 13.604C293.551 13.604 293.115 13.788 292.771 14.156C292.435 14.516 292.267 14.964 292.267 15.5C292.267 16.036 292.435 16.488 292.771 16.856C293.115 17.216 293.551 17.396 294.079 17.396ZM301.287 18.62C300.383 18.62 299.627 18.324 299.019 17.732C298.419 17.132 298.119 16.388 298.119 15.5C298.119 14.612 298.419 13.872 299.019 13.28C299.627 12.68 300.383 12.38 301.287 12.38C301.903 12.38 302.455 12.528 302.943 12.824C303.439 13.12 303.819 13.524 304.083 14.036L302.931 14.66C302.779 14.34 302.559 14.084 302.271 13.892C301.983 13.7 301.655 13.604 301.287 13.604C300.759 13.604 300.323 13.788 299.979 14.156C299.635 14.516 299.463 14.964 299.463 15.5C299.463 16.036 299.635 16.488 299.979 16.856C300.323 17.216 300.759 17.396 301.287 17.396C301.655 17.396 301.983 17.3 302.271 17.108C302.559 16.916 302.779 16.66 302.931 16.34L304.083 16.964C303.819 17.476 303.439 17.88 302.943 18.176C302.455 18.472 301.903 18.62 301.287 18.62ZM308.025 18.62C307.121 18.62 306.365 18.324 305.757 17.732C305.157 17.132 304.857 16.388 304.857 15.5C304.857 14.612 305.157 13.872 305.757 13.28C306.365 12.68 307.121 12.38 308.025 12.38C308.641 12.38 309.193 12.528 309.681 12.824C310.177 13.12 310.557 13.524 310.821 14.036L309.669 14.66C309.517 14.34 309.297 14.084 309.009 13.892C308.721 13.7 308.393 13.604 308.025 13.604C307.497 13.604 307.061 13.788 306.717 14.156C306.373 14.516 306.201 14.964 306.201 15.5C306.201 16.036 306.373 16.488 306.717 16.856C307.061 17.216 307.497 17.396 308.025 17.396C308.393 17.396 308.721 17.3 309.009 17.108C309.297 16.916 309.517 16.66 309.669 16.34L310.821 16.964C310.557 17.476 310.177 17.88 309.681 18.176C309.193 18.472 308.641 18.62 308.025 18.62ZM313.203 18.5H312.027V12.5H313.347V16.496L316.407 12.5H317.583V18.5H316.263V14.504L313.203 18.5ZM320.539 18.5H319.363V12.5H320.683V16.496L323.743 12.5H324.919V18.5H323.599V14.504L320.539 18.5ZM323.647 11.132C323.271 11.492 322.799 11.672 322.231 11.672C321.663 11.672 321.187 11.492 320.803 11.132C320.427 10.764 320.239 10.28 320.239 9.68V9.5H321.175V9.68C321.175 10.048 321.275 10.34 321.475 10.556C321.675 10.764 321.927 10.868 322.231 10.868C322.535 10.868 322.787 10.764 322.987 10.556C323.187 10.34 323.287 10.048 323.287 9.68V9.5H324.223V9.68C324.223 10.28 324.031 10.764 323.647 11.132ZM329.435 18.62C328.531 18.62 327.775 18.324 327.167 17.732C326.567 17.132 326.267 16.388 326.267 15.5C326.267 14.612 326.567 13.872 327.167 13.28C327.775 12.68 328.531 12.38 329.435 12.38C330.051 12.38 330.603 12.528 331.091 12.824C331.587 13.12 331.967 13.524 332.231 14.036L331.079 14.66C330.927 14.34 330.707 14.084 330.419 13.892C330.131 13.7 329.803 13.604 329.435 13.604C328.907 13.604 328.471 13.788 328.127 14.156C327.783 14.516 327.611 14.964 327.611 15.5C327.611 16.036 327.783 16.488 328.127 16.856C328.471 17.216 328.907 17.396 329.435 17.396C329.803 17.396 330.131 17.3 330.419 17.108C330.707 16.916 330.927 16.66 331.079 16.34L332.231 16.964C331.967 17.476 331.587 17.88 331.091 18.176C330.603 18.472 330.051 18.62 329.435 18.62ZM337.41 18.5L334.758 15.944V18.5H333.438V12.5H334.758V15.068L337.122 12.5H338.73L336.018 15.452L339.162 18.5H337.41ZM344.475 17.72C343.875 18.32 343.131 18.62 342.243 18.62C341.355 18.62 340.607 18.32 339.999 17.72C339.399 17.112 339.099 16.372 339.099 15.5C339.099 14.628 339.399 13.892 339.999 13.292C340.607 12.684 341.355 12.38 342.243 12.38C343.131 12.38 343.875 12.684 344.475 13.292C345.083 13.892 345.387 14.628 345.387 15.5C345.387 16.372 345.083 17.112 344.475 17.72ZM342.243 17.396C342.763 17.396 343.191 17.216 343.527 16.856C343.871 16.488 344.043 16.036 344.043 15.5C344.043 14.964 343.871 14.516 343.527 14.156C343.191 13.788 342.763 13.604 342.243 13.604C341.715 13.604 341.279 13.788 340.935 14.156C340.599 14.516 340.431 14.964 340.431 15.5C340.431 16.036 340.599 16.488 340.935 16.856C341.279 17.216 341.715 17.396 342.243 17.396ZM346.715 18.5V12.5H350.651V13.676H348.035V18.5H346.715ZM356.51 17.72C355.91 18.32 355.166 18.62 354.278 18.62C353.39 18.62 352.642 18.32 352.034 17.72C351.434 17.112 351.134 16.372 351.134 15.5C351.134 14.628 351.434 13.892 352.034 13.292C352.642 12.684 353.39 12.38 354.278 12.38C355.166 12.38 355.91 12.684 356.51 13.292C357.118 13.892 357.422 14.628 357.422 15.5C357.422 16.372 357.118 17.112 356.51 17.72ZM354.278 17.396C354.798 17.396 355.226 17.216 355.562 16.856C355.906 16.488 356.078 16.036 356.078 15.5C356.078 14.964 355.906 14.516 355.562 14.156C355.226 13.788 354.798 13.604 354.278 13.604C353.75 13.604 353.314 13.788 352.97 14.156C352.634 14.516 352.466 14.964 352.466 15.5C352.466 16.036 352.634 16.488 352.97 16.856C353.314 17.216 353.75 17.396 354.278 17.396ZM367.214 18.5V11.324H363.122V18.5H361.73V9.98H368.606V18.5H367.214ZM374.559 17.288C375.391 17.288 376.095 16.992 376.671 16.4C377.247 15.808 377.535 15.088 377.535 14.24C377.535 13.392 377.247 12.672 376.671 12.08C376.095 11.488 375.391 11.192 374.559 11.192C373.719 11.192 373.011 11.488 372.435 12.08C371.859 12.672 371.571 13.392 371.571 14.24C371.571 15.088 371.859 15.808 372.435 16.4C373.011 16.992 373.719 17.288 374.559 17.288ZM377.679 17.36C376.823 18.216 375.783 18.644 374.559 18.644C373.335 18.644 372.295 18.22 371.439 17.372C370.583 16.516 370.155 15.472 370.155 14.24C370.155 13.008 370.583 11.968 371.439 11.12C372.295 10.264 373.335 9.836 374.559 9.836C375.783 9.836 376.823 10.264 377.679 11.12C378.535 11.976 378.963 13.016 378.963 14.24C378.963 15.464 378.535 16.504 377.679 17.36ZM168.91 24.98H170.194L173.17 29.012L176.158 24.98H177.442V33.5H176.026V27.392L173.182 31.256L170.314 27.38V33.5H168.91V24.98ZM180.477 33.5H179.301V27.5H180.621V31.496L183.681 27.5H184.857V33.5H183.537V29.504L180.477 33.5ZM186.637 33.5V27.5H187.957V29.876H190.849V27.5H192.169V33.5H190.849V31.052H187.957V33.5H186.637ZM200.285 32.324V35H199.085V33.5H193.949V27.5H195.269V32.324H198.017V27.5H199.337V32.324H200.285ZM202.719 33.5H201.543V27.5H202.863V31.496L205.923 27.5H207.099V33.5H205.779V29.504L202.719 33.5ZM213.139 36.008H211.819V33.62H211.723C210.715 33.62 209.915 33.32 209.323 32.72C208.739 32.112 208.447 31.372 208.447 30.5C208.447 29.628 208.739 28.892 209.323 28.292C209.915 27.684 210.715 27.38 211.723 27.38H211.819V24.488H213.139V27.38H213.235C214.243 27.38 215.039 27.684 215.623 28.292C216.207 28.892 216.499 29.628 216.499 30.5C216.499 31.372 216.207 32.112 215.623 32.72C215.039 33.32 214.243 33.62 213.235 33.62H213.139V36.008ZM213.235 28.592H213.139V32.408H213.235C213.827 32.408 214.295 32.228 214.639 31.868C214.991 31.5 215.167 31.044 215.167 30.5C215.167 29.956 214.991 29.504 214.639 29.144C214.287 28.776 213.819 28.592 213.235 28.592ZM211.819 32.408V28.592H211.723C211.131 28.592 210.659 28.776 210.307 29.144C209.963 29.504 209.791 29.956 209.791 30.5C209.791 31.052 209.963 31.508 210.307 31.868C210.651 32.228 211.123 32.408 211.723 32.408H211.819ZM219.164 36.008H217.844V27.5H219.164V28.304C219.348 28.048 219.612 27.832 219.956 27.656C220.308 27.472 220.688 27.38 221.096 27.38C221.912 27.38 222.596 27.684 223.148 28.292C223.708 28.9 223.988 29.636 223.988 30.5C223.988 31.364 223.708 32.1 223.148 32.708C222.596 33.316 221.912 33.62 221.096 33.62C220.688 33.62 220.308 33.532 219.956 33.356C219.612 33.172 219.348 32.952 219.164 32.696V36.008ZM220.856 32.42C221.376 32.42 221.804 32.236 222.14 31.868C222.476 31.5 222.644 31.044 222.644 30.5C222.644 29.956 222.476 29.5 222.14 29.132C221.804 28.764 221.376 28.58 220.856 28.58C220.328 28.58 219.896 28.764 219.56 29.132C219.224 29.5 219.056 29.956 219.056 30.5C219.056 31.044 219.224 31.5 219.56 31.868C219.896 32.236 220.328 32.42 220.856 32.42ZM230.996 33.5V27.5H232.316V33.5H230.996ZM225.332 33.5V27.5H226.652V29.48H227.912C228.64 29.48 229.188 29.684 229.556 30.092C229.932 30.492 230.12 30.952 230.12 31.472C230.12 32 229.932 32.472 229.556 32.888C229.188 33.296 228.64 33.5 227.912 33.5H225.332ZM226.652 30.644V32.336H227.804C228.14 32.336 228.396 32.264 228.572 32.12C228.756 31.968 228.848 31.756 228.848 31.484C228.848 30.924 228.5 30.644 227.804 30.644H226.652ZM241.914 25.784C242.466 26.312 242.742 26.972 242.742 27.764C242.742 28.556 242.466 29.22 241.914 29.756C241.362 30.284 240.654 30.548 239.79 30.548H238.482V33.5H237.078V24.98H239.79C240.654 24.98 241.362 25.248 241.914 25.784ZM240.93 28.82C241.218 28.54 241.362 28.188 241.362 27.764C241.362 27.34 241.218 26.992 240.93 26.72C240.65 26.44 240.266 26.3 239.778 26.3H238.482V29.228H239.778C240.266 29.228 240.65 29.092 240.93 28.82ZM247.685 31.484V26.912H247.637C246.749 26.904 246.085 27.104 245.645 27.512C245.205 27.92 244.985 28.48 244.985 29.192C244.985 29.912 245.205 30.476 245.645 30.884C246.085 31.284 246.749 31.484 247.637 31.484H247.685ZM249.089 33.86H247.685V32.768H247.637C246.381 32.768 245.385 32.456 244.649 31.832C243.921 31.2 243.557 30.32 243.557 29.192C243.557 28.08 243.921 27.212 244.649 26.588C245.385 25.956 246.381 25.64 247.637 25.64H247.685V24.62H249.089V25.64H249.125C250.389 25.64 251.385 25.956 252.113 26.588C252.841 27.212 253.205 28.08 253.205 29.192C253.205 30.32 252.837 31.2 252.101 31.832C251.373 32.456 250.381 32.768 249.125 32.768H249.089V33.86ZM249.089 31.484H249.137C250.025 31.484 250.689 31.28 251.129 30.872C251.569 30.464 251.789 29.904 251.789 29.192C251.789 28.48 251.565 27.92 251.117 27.512C250.677 27.104 250.017 26.904 249.137 26.912H249.089V31.484Z" fill="#1D1E2C"/>
<defs>
<clipPath id="clip0_2615_991">
<rect width="137.609" height="30" fill="white" transform="translate(15.2572 6.5)"/>
</clipPath>
</defs>
</svg>
