<svg width="25" height="25" viewBox="0 0 25 25" fill="none" xmlns="http://www.w3.org/2000/svg">
<path fill-rule="evenodd" clip-rule="evenodd" d="M12.5 23.1585C6.42487 23.1585 1.5 18.1997 1.5 12.0827C1.5 5.9657 6.42487 1.0069 12.5 1.0069C18.5751 1.0069 23.5 5.9657 23.5 12.0827C23.5 18.1997 18.5751 23.1585 12.5 23.1585ZM19.8994 17.2427C20.9086 15.7784 21.5 14.0001 21.5 12.0827C21.5 7.07787 17.4706 3.02067 12.5 3.02067C7.52946 3.02067 3.50002 7.07787 3.50002 12.0827C3.50002 14 4.09138 15.7782 5.10046 17.2425C6.22595 15.7458 8.87056 15.1034 12.4999 15.1034C16.1294 15.1034 18.774 15.7458 19.8994 17.2427ZM18.4646 18.869C18.172 17.8093 16.0694 17.1171 12.4999 17.1171C8.93061 17.1171 6.82802 17.8092 6.53523 18.8688C8.12322 20.2849 10.2119 21.1447 12.5 21.1447C14.788 21.1447 16.8766 20.285 18.4646 18.869ZM12.5001 6.04134C10.0792 6.04134 8.50006 7.8092 8.50006 10.0689C8.50006 13.5199 10.2609 15.1034 12.5001 15.1034C14.7181 15.1034 16.5001 13.5725 16.5001 10.2703C16.5001 7.97616 14.9143 6.04134 12.5001 6.04134ZM10.5001 10.0689C10.5001 12.3538 11.3183 13.0896 12.5001 13.0896C13.6778 13.0896 14.5001 12.3831 14.5001 10.2703C14.5001 9.01209 13.7157 8.05512 12.5001 8.05512C11.2338 8.05512 10.5001 8.87657 10.5001 10.0689Z" fill="black"/>
</svg>
